<svg width="800" height="800" viewBox="0 0 800 800" fill="none" xmlns="http://www.w3.org/2000/svg">
<path d="M388.932 181.51C399.143 166.192 419.839 162.053 435.156 172.265C450.474 182.476 454.613 203.173 444.401 218.49L345.617 366.667H483.333C495.626 366.667 506.922 373.433 512.723 384.271C518.523 395.11 517.887 408.262 511.068 418.49L377.735 618.49C367.524 633.808 346.827 637.947 331.51 627.735C316.192 617.524 312.053 596.827 322.265 581.51L421.05 433.333H283.333C271.04 433.333 259.745 426.567 253.944 415.729C248.144 404.89 248.78 391.738 255.599 381.51L388.932 181.51ZM66.6671 493.333V306.667C66.6671 288.549 66.6407 272.955 67.6856 260.166C68.7623 246.988 71.1402 233.881 77.5665 221.269H77.5655C87.1527 202.452 102.452 187.153 121.269 177.565V177.566C133.881 171.14 146.988 168.762 160.166 167.686C172.955 166.641 188.549 166.667 206.667 166.667H256.667C275.076 166.667 290 181.591 290 200C290 218.409 275.076 233.333 256.667 233.333H206.667C187.449 233.333 175.039 233.359 165.595 234.131C156.539 234.871 153.182 236.127 151.534 236.967H151.533C145.261 240.162 140.162 245.261 136.967 251.533V251.534C136.127 253.182 134.871 256.539 134.131 265.595C133.359 275.039 133.333 287.449 133.333 306.667V493.333C133.333 512.551 133.359 524.961 134.131 534.406C134.871 543.461 136.127 546.819 136.966 548.466L136.967 548.467C140.163 554.74 145.262 559.838 151.53 563.031L151.534 563.033C153.182 563.873 156.539 565.129 165.595 565.869C175.039 566.641 187.449 566.667 206.667 566.667H216.667C235.076 566.667 250 581.591 250 600C250 618.409 235.076 633.333 216.667 633.333H206.667C188.549 633.333 172.955 633.359 160.166 632.314C146.988 631.238 133.88 628.861 121.267 622.434V622.433C102.742 612.995 87.6306 598.022 78.0196 579.612L77.5665 578.733C71.1396 566.121 68.7623 553.013 67.6856 539.835C66.6407 527.046 66.6671 511.451 66.6671 493.333ZM633.333 493.333V306.667C633.333 287.449 633.308 275.039 632.536 265.595C631.796 256.539 630.54 253.182 629.7 251.534L629.698 251.53C626.505 245.262 621.406 240.163 615.134 236.967L615.133 236.966C613.486 236.127 610.128 234.871 601.072 234.131C591.628 233.359 579.218 233.333 560 233.333H550C531.591 233.333 516.667 218.41 516.667 200C516.667 181.591 531.591 166.667 550 166.667H560C578.118 166.667 593.712 166.641 606.501 167.686C619.679 168.762 632.788 171.139 645.4 177.566L646.279 178.02C664.689 187.631 679.662 202.742 689.1 221.267C695.527 233.879 697.904 246.988 698.981 260.166C700.025 272.955 700 288.549 700 306.667V333.333C718.41 333.333 733.333 348.258 733.333 366.667V433.333C733.333 451.743 718.41 466.667 700 466.667V493.333C700 511.451 700.026 527.046 698.981 539.835C697.904 553.012 695.526 566.118 689.101 578.73L689.102 578.73C679.516 597.546 664.216 612.845 645.4 622.432L645.401 622.433C632.789 628.86 619.68 631.238 606.502 632.314C593.713 633.359 578.118 633.333 560 633.333H510.333C491.924 633.333 477 618.409 477 600C477 581.591 491.924 566.667 510.333 566.667H560C579.218 566.667 591.628 566.641 601.072 565.869C610.127 565.129 613.485 563.874 615.132 563.034L615.136 563.032C621.405 559.838 626.504 554.738 629.698 548.469L629.7 548.466C630.54 546.819 631.796 543.462 632.536 534.406C633.308 524.961 633.333 512.551 633.333 493.333Z" fill="black"/>
</svg>
