<svg width="800" height="800" viewBox="0 0 800 800" fill="none" xmlns="http://www.w3.org/2000/svg">
<path d="M66.6671 526.667V273.333C66.6671 255.215 66.6407 239.621 67.6856 226.833C68.7623 213.655 71.1402 200.547 77.5665 187.935C87.1537 169.118 102.452 153.819 121.269 144.232C133.881 137.806 146.988 135.429 160.166 134.352C172.955 133.307 188.549 133.333 206.667 133.333H322.484C336.744 133.333 349.195 133.132 361.233 135.826L362.398 136.096L362.4 136.097C372.282 138.47 381.744 142.335 390.459 147.557L391.3 148.067L391.305 148.07C402.176 154.733 411.069 163.927 421.481 174.338L421.487 174.346L425.66 178.521C438.299 191.16 440.945 193.503 443.525 195.085C446.511 196.915 449.765 198.262 453.163 199.079C456.108 199.786 459.624 200 477.517 200H593.333C611.451 200 627.046 199.974 639.835 201.019C653.013 202.096 666.121 204.473 678.733 210.9C697.546 220.486 712.847 235.782 722.434 254.6L723.023 255.784C729.007 268.032 731.271 280.732 732.315 293.499C733.359 306.288 733.333 321.881 733.333 340V526.667C733.333 544.785 733.359 560.379 732.315 573.168C731.238 586.345 728.859 599.451 722.434 612.063L722.435 612.064C712.849 630.88 697.549 646.179 678.733 655.765L678.734 655.766C666.122 662.193 653.013 664.57 639.835 665.647C627.046 666.692 611.451 666.667 593.333 666.667H206.667C188.549 666.667 172.954 666.692 160.165 665.647C146.987 664.57 133.879 662.193 121.267 655.766C102.743 646.329 87.6305 631.356 78.0196 612.946L77.5665 612.067C71.1396 599.454 68.7623 586.346 67.6856 573.168C66.6407 560.379 66.6671 544.785 66.6671 526.667ZM133.333 526.667C133.333 545.885 133.359 558.294 134.131 567.739C134.871 576.795 136.127 580.152 136.966 581.799L136.967 581.8C140.063 587.877 144.945 592.852 150.946 596.06L151.53 596.365L151.534 596.367C153.182 597.206 156.54 598.463 165.595 599.203C175.039 599.974 187.449 600 206.667 600H593.333C612.551 600 624.962 599.974 634.406 599.203C643.462 598.463 646.819 597.206 648.466 596.367L648.469 596.365C654.738 593.171 659.838 588.072 663.032 581.802L663.034 581.798C663.874 580.151 665.129 576.794 665.869 567.739C666.641 558.294 666.667 545.885 666.667 526.667V340C666.667 320.782 666.641 308.373 665.869 298.928C665.129 289.873 663.873 286.516 663.033 284.868L663.031 284.864C659.838 278.595 654.74 273.496 648.467 270.299C646.82 269.46 643.462 268.204 634.406 267.464C624.961 266.693 612.551 266.667 593.333 266.667H477.517C462.796 266.667 450.004 266.881 437.603 263.904L437.6 263.903C427.399 261.453 417.646 257.414 408.7 251.933L408.695 251.929C397.824 245.266 388.931 236.072 378.52 225.661L374.332 221.471C361.698 208.837 359.054 206.496 356.474 204.914C353.488 203.084 350.234 201.737 346.836 200.92C343.891 200.213 340.376 200 322.484 200H206.667C187.449 200 175.039 200.026 165.595 200.797C156.539 201.537 153.182 202.794 151.534 203.633C145.262 206.829 140.162 211.928 136.967 218.2C136.127 219.848 134.871 223.206 134.131 232.261C133.359 241.706 133.333 254.115 133.333 273.333V526.667Z" fill="black"/>
</svg>
