<svg width="800" height="800" viewBox="0 0 800 800" fill="none" xmlns="http://www.w3.org/2000/svg">
<path d="M133.334 400V333.334C133.334 314.924 148.257 300 166.667 300C185.076 300 200 314.924 200 333.334V400C200 510.457 289.543 600 400 600C510.457 600 600 510.457 600 400V333.334C600 314.924 614.924 300 633.334 300C651.743 300 666.667 314.925 666.667 333.334V400C666.667 535.987 564.877 648.198 433.334 664.602V700H533.334C551.743 700 566.667 714.925 566.667 733.334C566.667 751.743 551.743 766.667 533.334 766.667H266.667C248.257 766.667 233.334 751.743 233.334 733.334C233.334 714.924 248.257 700 266.667 700H366.667V664.602C235.123 648.198 133.334 535.987 133.334 400ZM466.667 166.667C466.667 129.848 436.82 100 400 100C363.18 100 333.334 129.848 333.334 166.667V400C333.334 436.82 363.179 466.667 400 466.667C436.82 466.667 466.667 436.821 466.667 400V166.667ZM533.334 400C533.334 473.639 473.639 533.334 400 533.334C326.36 533.334 266.667 473.639 266.667 400V166.667C266.667 93.0296 326.36 33.3342 400 33.334C473.64 33.334 533.334 93.0295 533.334 166.667V400Z" fill="black"/>
</svg>
