<svg width="800" height="800" viewBox="0 0 800 800" fill="none" xmlns="http://www.w3.org/2000/svg">
<path d="M44.4364 269.145C30.7187 281.422 29.5514 302.495 41.8291 316.213C54.1064 329.931 75.1797 331.098 88.8971 318.82L44.4364 269.145ZM711.103 318.82C724.82 331.098 745.893 329.931 758.17 316.213C770.45 302.495 769.28 281.422 755.563 269.145L711.103 318.82ZM400 633.334C381.59 633.334 366.667 648.257 366.667 666.667C366.667 685.077 381.59 700 400 700V633.334ZM400.333 700C418.743 700 433.667 685.077 433.667 666.667C433.667 648.257 418.743 633.334 400.333 633.334V700ZM489.683 568C503.3 580.387 524.383 579.39 536.77 565.774C549.16 552.154 548.16 531.074 534.543 518.684L489.683 568ZM601.797 444.677C615.413 457.064 636.497 456.067 648.883 442.447C661.27 428.83 660.273 407.747 646.657 395.36L601.797 444.677ZM265.457 518.684C251.839 531.074 250.841 552.154 263.229 565.774C275.617 579.39 296.698 580.387 310.317 568L265.457 518.684ZM153.345 395.36C139.726 407.747 138.728 428.83 151.116 442.447C163.504 456.067 184.585 457.064 198.204 444.677L153.345 395.36ZM352.35 135.435C334.013 137.06 320.464 153.243 322.089 171.581C323.714 189.918 339.897 203.467 358.233 201.842L352.35 135.435ZM577.977 345.994C561.89 337.047 541.593 342.834 532.647 358.924C523.7 375.014 529.49 395.31 545.577 404.257L577.977 345.994ZM123.57 76.43C110.553 63.4127 89.4474 63.4127 76.4297 76.43C63.4124 89.4477 63.4124 110.553 76.4297 123.571L123.57 76.43ZM676.43 723.57C689.447 736.587 710.553 736.587 723.57 723.57C736.587 710.554 736.587 689.447 723.57 676.43L676.43 723.57ZM400 200C519.543 200 628.52 244.906 711.103 318.82L755.563 269.145C661.23 184.713 536.573 133.334 400 133.334V200ZM400 700H400.333V633.334H400V700ZM400 533.334C434.557 533.334 465.977 546.437 489.683 568L534.543 518.684C499.043 486.394 451.787 466.667 400 466.667V533.334ZM310.317 568C334.023 546.437 365.443 533.334 400 533.334V466.667C348.213 466.667 300.957 486.394 265.457 518.684L310.317 568ZM358.233 201.842C371.987 200.623 385.917 200 400 200V133.334C383.95 133.334 368.057 134.044 352.35 135.435L358.233 201.842ZM545.577 404.257C565.857 415.534 584.707 429.134 601.797 444.677L646.657 395.36C625.837 376.424 602.813 359.804 577.977 345.994L545.577 404.257ZM76.4297 123.571L182.216 229.357L229.357 182.216L123.57 76.43L76.4297 123.571ZM88.8971 318.82C127.071 284.654 170.883 256.692 218.744 236.498L192.829 175.075C138.084 198.173 88.0231 230.134 44.4364 269.145L88.8971 318.82ZM182.216 229.357L315.347 362.487L362.487 315.348L229.357 182.216L182.216 229.357ZM315.347 362.487L676.43 723.57L723.57 676.43L362.487 315.348L315.347 362.487ZM198.204 444.677C238.646 407.89 289.118 382.04 344.987 371.694L332.848 306.142C264.424 318.814 202.703 350.464 153.345 395.36L198.204 444.677Z" fill="black"/>
</svg>
