<svg width="800" height="800" viewBox="0 0 800 800" fill="none" xmlns="http://www.w3.org/2000/svg">
<path d="M66.667 454.977C66.6672 362.569 130.586 277.791 226.962 254.039C263.456 183.904 337.136 133.334 422.977 133.334C533.628 133.334 625.588 214.299 641.279 320.263C696.9 352.858 733.333 415.944 733.333 483.23C733.333 584.518 651.274 666.667 550 666.667H280C162.468 666.667 66.667 572.177 66.667 454.977ZM366.667 516.667V397.141L356.903 406.904C343.886 419.921 322.78 419.922 309.763 406.904C296.745 393.887 296.746 372.781 309.763 359.764L376.43 293.097C389.447 280.079 410.553 280.079 423.57 293.097L490.237 359.764C503.254 372.781 503.255 393.887 490.237 406.904C477.22 419.922 456.114 419.921 443.097 406.904L433.333 397.141V516.667C433.333 535.076 418.409 550 400 550C381.59 550 366.667 535.076 366.667 516.667ZM133.333 454.977C133.333 534.783 198.709 600 280 600H550C614.412 600 666.667 547.743 666.667 483.23C666.667 434.397 637.011 389.858 596.646 372.209C585.144 367.18 577.442 356.113 576.722 343.58C572.134 263.778 505.278 200 422.977 200C359.503 200 304.172 240.515 280.727 296.257C276.272 306.849 266.675 314.4 255.332 316.238C181.507 328.201 133.333 389.654 133.333 454.977Z" fill="black"/>
</svg>
