<svg width="800" height="800" viewBox="0 0 800 800" fill="none" xmlns="http://www.w3.org/2000/svg">
<path d="M375 433.333V258.333C375 244.526 386.193 233.333 400 233.333C413.807 233.333 425 244.526 425 258.333V433.333C425 447.14 413.807 458.333 400 458.333C386.193 458.333 375 447.14 375 433.333Z" fill="black"/>
<path d="M677.667 286.001C677.667 257.355 662.499 231.166 637.712 216.58L439.93 102.373C414.909 88.0757 384.392 88.1399 359.833 102.318L359.832 102.317L161.953 216.58C137.204 231.144 121.999 257.645 121.999 286.001V514C121.999 542.336 136.805 568.349 160.688 582.676L161.832 583.35L161.834 583.351L359.779 697.651C384.792 711.925 415.289 711.853 439.834 697.683L637.712 583.419C662.461 568.854 677.667 542.357 677.667 514V286.001ZM727.667 514C727.667 560.293 702.89 603.113 662.999 626.555C662.944 626.587 662.89 626.619 662.835 626.65L464.835 740.983L464.833 740.984C424.726 764.139 375.242 764.076 334.93 741.04C334.897 741.021 334.865 741.002 334.832 740.983L136.831 626.65V626.649C96.7198 603.491 71.999 560.547 71.999 514V286.001C71.9991 239.708 96.7758 196.888 136.667 173.446L136.831 173.351L334.832 59.0176L334.834 59.0156C374.941 35.8611 424.424 35.9254 464.736 58.961C464.769 58.9796 464.802 58.9988 464.835 59.0176L662.835 173.351L662.999 173.446C702.852 196.865 727.667 239.331 727.667 286.001V514Z" fill="black"/>
<path d="M366.667 543.33V540C366.667 521.591 381.591 506.667 400 506.667C418.409 506.667 433.333 521.591 433.333 540V543.33C433.333 561.74 418.409 576.663 400 576.663C381.591 576.663 366.667 561.74 366.667 543.33Z" fill="black"/>
</svg>
