<svg width="800" height="800" viewBox="0 0 800 800" fill="none" xmlns="http://www.w3.org/2000/svg">
<path d="M400.334 616.67C418.743 616.67 433.667 631.594 433.667 650.003C433.667 668.412 418.743 683.337 400.334 683.337H400C381.59 683.337 366.667 668.412 366.667 650.003C366.667 631.594 381.59 616.67 400 616.67H400.334ZM366.667 516.67V150.008C366.667 131.598 381.59 116.675 400 116.675C418.409 116.675 433.334 131.598 433.334 150.008V516.67C433.334 535.079 418.409 550.003 400 550.003C381.59 550.003 366.667 535.079 366.667 516.67ZM253.322 330.527C270.191 323.157 289.841 330.858 297.212 347.728C304.582 364.597 296.881 384.248 280.011 391.618C246.359 406.321 215.898 427.037 190.001 452.424C176.854 465.311 155.75 465.1 142.863 451.954C129.976 438.808 130.186 417.704 143.333 404.816C174.936 373.837 212.144 348.518 253.322 330.527ZM502.788 347.729C510.158 330.859 529.809 323.157 546.678 330.527C587.858 348.518 625.065 373.837 656.668 404.816C669.814 417.704 670.024 438.808 657.137 451.954C644.25 465.1 623.145 465.311 609.999 452.424C584.101 427.037 553.642 406.322 519.989 391.619C503.119 384.249 495.418 364.598 502.788 347.729ZM257.798 152.511C275.544 147.613 293.9 158.029 298.798 175.774C303.696 193.52 293.281 211.878 275.535 216.775C205.327 236.153 141.717 271.547 88.8971 318.822C75.1796 331.1 54.1063 329.932 41.8287 316.215C29.5513 302.497 30.7187 281.424 44.4362 269.146C104.744 215.169 177.451 174.687 257.798 152.511ZM501.202 175.774C506.1 158.029 524.456 147.614 542.202 152.512C622.548 174.688 695.257 215.169 755.564 269.146C769.282 281.424 770.448 302.497 758.171 316.215C745.893 329.932 724.82 331.1 711.102 318.822C658.283 271.547 594.672 236.153 524.464 216.775C506.719 211.877 496.304 193.52 501.202 175.774Z" fill="black"/>
</svg>
