<svg width="800" height="800" viewBox="0 0 800 800" fill="none" xmlns="http://www.w3.org/2000/svg">
<path d="M44.4363 269.144C30.7186 281.422 29.5512 302.495 41.8289 316.212C54.1063 329.93 75.1796 331.097 88.8969 318.82L44.4363 269.144ZM711.103 318.82C724.82 331.097 745.893 329.93 758.17 316.212C770.45 302.495 769.28 281.422 755.563 269.144L711.103 318.82ZM400 633.333C381.59 633.333 366.667 648.256 366.667 666.666C366.667 685.076 381.59 700 400 700V633.333ZM400.333 700C418.743 700 433.667 685.076 433.667 666.666C433.667 648.256 418.743 633.333 400.333 633.333V700ZM489.683 568C503.3 580.386 524.383 579.39 536.77 565.773C549.16 552.153 548.16 531.073 534.543 518.683L489.683 568ZM601.797 444.676C615.413 457.063 636.497 456.066 648.883 442.446C661.27 428.83 660.273 407.746 646.657 395.36L601.797 444.676ZM265.457 518.683C251.839 531.073 250.841 552.153 263.229 565.773C275.617 579.39 296.698 580.386 310.317 568L265.457 518.683ZM153.345 395.36C139.726 407.746 138.728 428.83 151.116 442.446C163.504 456.066 184.585 457.063 198.204 444.676L153.345 395.36ZM88.8969 318.82C171.481 244.905 280.457 200 400 200V133.333C263.425 133.333 138.771 184.712 44.4363 269.144L88.8969 318.82ZM400 200C519.543 200 628.52 244.905 711.103 318.82L755.563 269.144C661.23 184.712 536.573 133.333 400 133.333V200ZM400 700H400.333V633.333H400V700ZM400 533.333C434.557 533.333 465.977 546.436 489.683 568L534.543 518.683C499.043 486.393 451.787 466.666 400 466.666V533.333ZM400 366.666C477.73 366.666 548.487 396.183 601.797 444.676L646.657 395.36C581.553 336.14 494.957 300 400 300V366.666ZM310.317 568C334.023 546.436 365.443 533.333 400 533.333V466.666C348.213 466.666 300.957 486.393 265.457 518.683L310.317 568ZM198.204 444.676C251.515 396.183 322.272 366.666 400 366.666V300C305.042 300 218.448 336.14 153.345 395.36L198.204 444.676Z" fill="black"/>
</svg>
