<svg width="100" height="100" viewBox="0 0 100 100" fill="none" xmlns="http://www.w3.org/2000/svg">
<path d="M42.8562 32.1155C42.7929 32.1625 42.7207 32.2 42.6411 32.2258L41.9755 32.4374C41.6 32.5546 41.0862 32.7144 40.4527 32.9899C38.504 33.7728 36.6013 34.8767 34.7778 36.2799C32.2876 38.1672 29.8504 40.7391 27.7261 43.721C25.3131 47.0658 23.1872 51.1773 21.5765 55.6147C19.7238 60.7683 18.6907 65.9955 18.5056 71.1486C18.4077 74.1068 18.6396 76.9956 19.1945 79.7331C19.5635 81.3722 19.9695 82.72 20.4685 83.9584C21.0566 85.3878 21.7658 86.7177 22.575 87.9047C24.2085 90.3401 26.5446 92.4322 29.3325 93.9584C31.8998 95.3709 34.9168 96.3694 38.3007 96.9264C41.1995 97.419 44.3782 97.5995 48.0223 97.4818C51.29 97.3546 54.5919 97.0006 57.8308 96.4293C61.4368 95.7695 64.5294 94.9109 67.2798 93.805C70.5317 92.5151 73.3064 90.8652 75.53 88.9002C77.9311 86.7972 79.7829 84.171 80.8868 81.3039C81.4125 79.9284 81.7998 78.4239 82.0372 76.8334C82.1426 76.2087 82.1911 75.5969 82.2425 74.9491L82.2766 74.5256C82.2782 74.3713 82.2835 74.1696 82.2895 73.9682C82.3063 73.3821 82.3221 72.8287 82.292 72.2783C82.2203 69.4765 81.7583 66.5713 80.8785 63.3738C80.145 60.6996 79.1153 57.9734 77.8174 55.2711C75.4573 50.3603 72.465 45.9486 68.9238 42.1586C65.6794 38.6832 62.0319 35.8833 58.3768 34.0617C56.7769 33.2516 55.0394 32.6056 53.2075 32.1393C52.5526 31.9568 51.9043 31.8475 51.2772 31.7421L50.7866 31.6585C50.5754 31.6338 50.328 31.6115 50.0842 31.5893L48.6119 31.4929L47.5772 31.4776L46.6048 31.539C46.0676 31.5548 45.5765 31.6379 45.1012 31.7191L44.2831 31.8551C43.9517 31.909 43.6371 31.9605 43.3415 32.0158L42.8563 32.1158L42.8562 32.1155ZM45.9237 99.0001C43.0521 99.0001 40.4635 98.7988 38.0559 98.3897C34.5092 97.8061 31.3325 96.7521 28.6183 95.2585C25.6236 93.6195 23.1086 91.3631 21.3459 88.736C20.4818 87.4679 19.7231 86.0469 19.0945 84.5176C18.5623 83.198 18.1339 81.7781 17.7438 80.0431C17.1621 77.1769 16.9208 74.1729 17.0227 71.0976C17.2131 65.7887 18.2754 60.4107 20.1806 55.1107C21.8389 50.5437 24.0309 46.3071 26.5201 42.8569C28.7279 39.7574 31.2731 37.0742 33.8775 35.1008C35.4779 33.8688 37.1442 32.8515 38.8412 32.069C38.8273 31.7168 39.0667 31.3944 39.4233 31.3162L43.0546 30.5595C43.3741 30.4997 43.7005 30.4462 44.0448 30.3903L44.8524 30.2558C45.3534 30.1707 45.9216 30.0744 46.537 30.0566L47.5128 29.9947C47.5322 29.9938 47.5514 29.9932 47.5702 29.9932L49.187 30.0174C49.2062 30.0174 49.2255 30.0188 49.2454 30.0203L50.2187 30.1114C50.4769 30.1351 50.7396 30.1589 51.0046 30.191L51.5235 30.2791C52.1887 30.3909 52.8762 30.5067 53.5904 30.706C55.5104 31.1946 57.3507 31.8786 59.0432 32.7357C62.851 34.6334 66.6445 37.5421 70.0082 41.1456C73.6522 45.0459 76.7295 49.5818 79.1549 54.6285C80.4913 57.4111 81.5527 60.2213 82.3099 62.9811C83.2214 66.2953 83.7007 69.3167 83.7743 72.218C83.8069 72.8095 83.7896 73.4198 83.7729 74.0109C83.7669 74.2072 83.7615 74.404 83.7575 74.6014L83.7215 75.0659C83.6701 75.7178 83.6166 76.3914 83.5028 77.0664C83.2515 78.7495 82.8367 80.3583 82.2718 81.8352C81.0813 84.9283 79.0891 87.7563 76.5098 90.0146C74.16 92.0909 71.2391 93.8308 67.8304 95.183C64.9889 96.3255 61.8034 97.2113 58.0935 97.8899C54.7838 98.473 51.4146 98.8345 48.0752 98.9646C47.3407 98.9878 46.6236 99.0002 45.9238 99.0002" fill="black"/>
<path d="M19.1198 82.0885H19.1125C18.703 82.0846 18.374 81.7488 18.378 81.3393L18.3864 80.4767C18.3869 80.4564 18.3878 80.4361 18.3894 80.4164L18.4843 79.3857C18.4863 79.3645 18.4893 79.3437 18.4927 79.3229L18.6094 78.676C18.6441 78.4402 18.7058 78.169 18.7948 77.8709C19.1198 76.6112 19.6762 75.3802 20.4423 74.2377C21.3281 72.9087 22.5497 71.6243 23.9736 70.5233C25.4336 69.4046 27.1617 68.3852 29.1128 67.4915C30.9557 66.6567 33.0393 65.9023 35.308 65.2481C39.2978 64.109 43.9964 63.24 49.2751 62.6638C54.5548 62.098 59.331 61.9443 63.4712 62.2023C65.8299 62.3566 68.0268 62.6479 70.0017 63.0688C72.0997 63.5249 74.0058 64.151 75.6701 64.9315C77.3007 65.7045 78.7687 66.6986 79.9191 67.8084C80.9098 68.7585 81.7169 69.8421 82.3159 71.0282C82.4534 71.276 82.5716 71.5272 82.6646 71.771L82.9084 72.3565C82.9164 72.3764 82.9238 72.3961 82.9302 72.4164L83.2433 73.4041C83.2492 73.4228 83.2547 73.4431 83.2591 73.4625L83.452 74.3023C83.544 74.7015 83.2942 75.0996 82.895 75.1916C82.4958 75.284 82.0977 75.0338 82.0057 74.6346L81.7283 73.5357L81.4761 72.776L81.2862 72.3195C81.2106 72.1207 81.1205 71.9317 81.0047 71.7216C80.476 70.6761 79.749 69.7012 78.8905 68.8778C77.8534 67.8773 76.5219 66.9766 75.0377 66.2733C73.4768 65.5423 71.6765 64.9518 69.6898 64.5195C67.7876 64.1139 65.6624 63.8324 63.3763 63.6831C59.3202 63.4279 54.6291 63.5822 49.4345 64.1386C44.2409 64.7058 39.6249 65.5586 35.7173 66.6742C33.5189 67.3083 31.5035 68.0379 29.7279 68.8415C27.8807 69.6877 26.2486 70.6496 24.8795 71.6987C23.5832 72.7008 22.4744 73.8645 21.6756 75.0623C21.0118 76.0525 20.5103 77.1603 20.2245 78.2677C20.1483 78.5249 20.1013 78.7281 20.0736 78.9161L19.9593 79.5537L19.8703 80.522L19.8618 81.3539C19.8579 81.7609 19.526 82.0884 19.12 82.0884" fill="black"/>
<path d="M32.3801 36.5802C32.2817 36.5802 32.1812 36.5604 32.0847 36.5184L31.3721 36.2088C30.693 35.8735 30.0278 35.4699 29.3626 34.9937C28.4036 34.2641 27.5252 33.46 26.7329 32.592C25.7724 31.5336 24.8525 30.3105 23.9978 28.9559C22.2079 26.1575 20.7553 22.5387 19.8002 18.4945C19.2601 16.074 19.1519 13.9537 19.4669 12.0046C19.6786 10.8071 20.0649 9.7127 20.6174 8.74185C21.2168 7.70417 21.9794 6.81047 22.8865 6.08141C23.3807 5.66394 23.9414 5.35295 24.3728 5.1298C24.3901 5.12089 24.4074 5.11247 24.4257 5.10511C24.9604 4.88005 25.5365 4.65452 26.1815 4.58876C27.3275 4.40027 28.5985 4.6703 29.7179 5.35639C31.3876 6.39205 32.8228 7.98062 34.1073 10.2157C34.9866 11.7816 35.7399 13.5225 36.4817 15.7017C36.8853 16.8739 37.2286 18.0065 37.561 19.1015C37.7281 19.653 37.8913 20.1911 38.0556 20.7124C39.2376 24.406 39.6674 27.1642 39.8188 28.4799C39.9246 29.2702 39.9528 29.9394 39.9731 30.428L39.9854 30.7158C40.0027 30.9913 40.0057 31.2124 39.9943 31.381L39.9889 31.5527C39.9756 31.9622 39.6239 32.2792 39.2237 32.2703C38.8142 32.257 38.4928 31.9142 38.5061 31.5047L38.5125 31.3074C38.5175 31.2223 38.5214 31.0829 38.504 30.7985L38.4902 30.4898C38.4699 30.0041 38.4452 29.3998 38.3463 28.6628C38.1999 27.3877 37.7859 24.7377 36.6414 21.1614C36.4743 20.6323 36.3095 20.0892 36.1408 19.5323C35.8124 18.4501 35.4731 17.3309 35.078 16.182C34.3653 14.0889 33.6472 12.4271 32.8172 10.9488C31.6613 8.93888 30.3918 7.52042 28.9387 6.61972C28.138 6.12913 27.2022 5.92391 26.3763 6.05934C25.9006 6.10884 25.4519 6.28392 25.0286 6.46149C24.67 6.64797 24.2155 6.90116 23.8297 7.22664C23.0636 7.84293 22.4024 8.61792 21.9048 9.48039C21.4389 10.2989 21.11 11.2332 20.9299 12.252C20.647 14.0014 20.7498 15.9382 21.2465 18.1628C22.1614 22.037 23.5468 25.4975 25.2501 28.1608C26.0612 29.4467 26.9288 30.6001 27.8304 31.5937C28.5614 32.395 29.3735 33.1378 30.2439 33.8006C30.9739 34.3234 31.6021 34.6681 31.9973 34.8635L32.6763 35.1582C33.0523 35.3214 33.2244 35.7586 33.0607 36.1345C32.9395 36.4139 32.6665 36.5806 32.3802 36.5806" fill="black"/>
<path d="M59.7338 33.6221C59.5033 33.6221 59.2768 33.5153 59.1319 33.3144C58.8915 32.9825 58.9666 32.5187 59.2985 32.2788L59.9281 31.8238C60.2431 31.5711 60.7823 31.1002 61.399 30.4162C62.093 29.5997 62.728 28.7001 63.2715 27.7594C63.9392 26.5975 64.5396 25.2849 65.0555 23.8596C66.1519 20.8901 66.7648 17.2133 66.8305 13.2236C66.8404 10.9539 66.5269 9.03988 65.8725 7.38105C65.4828 6.43347 64.9619 5.59165 64.3289 4.88882C63.6612 4.15585 62.8497 3.54015 61.9855 3.11081C61.5236 2.867 61.0256 2.71614 60.6349 2.61073C60.1828 2.52717 59.7065 2.45345 59.2772 2.50248C58.3958 2.55043 57.5259 2.95056 56.8458 3.60389C55.6223 4.79136 54.685 6.44818 53.9831 8.66645C53.4905 10.2817 53.1443 12.0588 52.8966 14.2527C52.7555 15.463 52.6631 16.6297 52.5736 17.7578C52.5275 18.337 52.483 18.9012 52.4336 19.4502C52.0795 23.1913 52.2417 25.8685 52.3698 27.1316C52.4321 27.8853 52.5369 28.4808 52.6211 28.9591L52.6724 29.2563C52.7174 29.5476 52.751 29.6827 52.7674 29.7375L52.8228 29.9571C52.9228 30.3547 52.6813 30.7578 52.2837 30.8577C51.8851 30.9566 51.4834 30.7157 51.3836 30.3185L51.3356 30.1261C51.2956 29.9911 51.2516 29.7755 51.2076 29.4925L51.1596 29.2156C51.0751 28.7344 50.9592 28.0751 50.8925 27.2675C50.76 25.9643 50.5903 23.1773 50.9558 19.3136C51.0047 18.7731 51.0488 18.2141 51.0943 17.6404C51.1848 16.4989 51.2783 15.3184 51.4222 14.0833C51.6808 11.7993 52.0444 9.93726 52.5662 8.22596C53.3462 5.76044 54.4081 3.90184 55.8152 2.53631C56.7648 1.62434 57.9493 1.08816 59.1536 1.02383C59.7516 0.953555 60.3629 1.05102 60.9341 1.15642C60.9529 1.16034 60.9722 1.16484 60.991 1.16971C61.4603 1.29529 62.0746 1.47928 62.6621 1.78991C63.6873 2.29878 64.6236 3.00909 65.4288 3.89233C66.1786 4.72525 66.7899 5.71094 67.2483 6.82625C67.9774 8.67405 68.3246 10.768 68.3142 13.239C68.2454 17.4029 67.601 21.2483 66.4491 24.3692C65.9056 25.8707 65.2681 27.262 64.5568 28.4999C63.9678 29.5193 63.2808 30.4921 62.5152 31.3932C61.9518 32.0184 61.388 32.5551 60.8257 33.0046L60.1674 33.4814C60.0359 33.5764 59.884 33.6218 59.7337 33.6218" fill="black"/>
<path d="M38.7579 53.2883C38.6842 53.2883 38.6105 53.2774 38.5388 53.2552C38.4404 53.2251 37.9156 53.0603 37.1722 52.7754C36.6039 52.5618 35.4668 52.0973 34.2834 51.4109C33.222 50.7838 32.2764 50.0399 31.6839 49.3667C31.4059 49.0675 31.2002 48.7821 31.0504 48.5735L31.0093 48.5171C30.9974 48.5002 30.9865 48.4835 30.9762 48.4662L30.7764 48.1372C30.5642 47.7866 30.676 47.3305 31.0266 47.1184C31.3768 46.9057 31.8328 47.018 32.0454 47.3682L32.2541 47.7065C32.3891 47.8934 32.5563 48.1258 32.7843 48.3721C33.2833 48.9385 34.1192 49.5902 35.0332 50.1303C36.1189 50.7604 37.1698 51.1892 37.699 51.3885C38.4171 51.6636 38.9202 51.8204 38.975 51.8371C39.3257 51.9454 39.5468 52.2941 39.4918 52.6571C39.4597 52.8708 39.3355 53.0597 39.1526 53.1749C39.0334 53.2495 38.8958 53.2881 38.7579 53.2881" fill="black"/>
<path d="M36.3375 55.3028C35.83 55.3028 35.286 55.1722 34.7677 54.921C34.4719 54.7874 34.1727 54.5781 33.8968 54.3067C33.64 54.0366 33.4462 53.7349 33.3023 53.3917C33.0615 52.7706 33.0214 52.1865 32.9921 51.7601L32.9748 51.4465C32.9605 51.1764 32.9486 50.9475 32.9317 50.7749C32.9149 50.5835 32.8961 50.4727 32.8936 50.4569C32.8215 50.0553 33.0879 49.672 33.4891 49.5978C33.8888 49.5221 34.2765 49.7882 34.3527 50.1893C34.3527 50.1893 34.3833 50.3505 34.4095 50.6374C34.4269 50.8209 34.4406 51.0716 34.4566 51.3674L34.4729 51.6676C34.4967 52.0089 34.5263 52.4446 34.6786 52.8378C34.7449 52.9955 34.8409 53.1464 34.9551 53.2671C35.0882 53.3972 35.2425 53.5075 35.3963 53.5771C35.8118 53.7785 36.2257 53.8581 36.5502 53.8017C36.9389 53.7394 37.2302 53.4887 37.3697 53.3452C37.6199 53.0914 37.7817 52.8368 37.8885 52.6677C37.986 52.5074 38.0419 52.4026 38.0478 52.3912C38.2368 52.0287 38.6838 51.8883 39.0464 52.0762C39.4094 52.2641 39.5519 52.7108 39.3649 53.0742C39.3649 53.0742 39.2928 53.2152 39.1488 53.4511C39.0182 53.6568 38.7883 54.0208 38.4297 54.3834C38.1082 54.7152 37.5577 55.1426 36.7916 55.2657C36.6453 55.2908 36.4929 55.3027 36.3376 55.3027" fill="black"/>
<path d="M56.3052 51.3915C56.046 51.3915 55.7938 51.2555 55.6578 51.0126C55.4569 50.6556 55.5841 50.2035 55.9411 50.0027C55.9456 50.0002 56.4189 49.7332 57.0881 49.294C57.5668 48.9833 58.5027 48.3389 59.4315 47.4888C60.2046 46.7697 60.8816 45.9541 61.2387 45.3106C61.4188 45.0045 61.5329 44.7409 61.6245 44.5292L61.6408 44.4922L61.7556 44.1564C61.8877 43.7686 62.3091 43.5599 62.6973 43.6939C63.0851 43.8261 63.2917 44.2474 63.1597 44.6351L63.0351 44.9996C63.0287 45.019 63.0218 45.0377 63.0134 45.056L62.9862 45.1188C62.8844 45.3547 62.7444 45.6781 62.5267 46.0472C62.1009 46.8148 61.3363 47.7436 60.4376 48.5789C59.4257 49.5057 58.4133 50.2031 57.8999 50.5365C57.1872 51.0044 56.6887 51.2848 56.6679 51.2967C56.5527 51.361 56.4285 51.3916 56.3054 51.3916" fill="black"/>
<path d="M58.6614 52.8898C58.1045 52.8898 57.5229 52.7073 57.0129 52.369C56.6257 52.1178 56.3517 51.8532 56.1261 51.6251C55.9264 51.4165 55.8259 51.2948 55.8259 51.2948C55.5653 50.9793 55.6088 50.5109 55.9239 50.2502C56.2389 49.9886 56.7053 50.0322 56.967 50.3466C56.9744 50.3551 57.0515 50.4461 57.1896 50.5909C57.3216 50.724 57.5347 50.9391 57.8271 51.1285C57.9997 51.2433 58.3361 51.4257 58.7247 51.404C59.06 51.3877 59.4472 51.222 59.794 50.95C59.9453 50.8367 60.0729 50.6952 60.1882 50.5187C60.2603 50.3985 60.3217 50.2304 60.3568 50.041C60.4177 49.6449 60.3539 49.213 60.3025 48.8658L60.2559 48.5775C60.208 48.2853 60.1674 48.0379 60.1452 47.85C60.115 47.6142 60.1076 47.4617 60.1057 47.4241C60.1052 47.4098 60.1047 47.3954 60.1047 47.3805C60.1047 46.971 60.4366 46.6387 60.8466 46.6387C61.2428 46.6387 61.5692 46.9546 61.588 47.3504C61.5889 47.3712 61.5944 47.4844 61.6181 47.6679C61.6394 47.8455 61.6765 48.071 61.72 48.3376L61.769 48.6398C61.8329 49.0717 61.9183 49.6508 61.8195 50.2888C61.7487 50.6761 61.6236 51.0124 61.4441 51.3087C61.2196 51.6534 60.9728 51.9214 60.6963 52.1277C60.1197 52.5813 59.442 52.8548 58.8021 52.886C58.7556 52.8885 58.7087 52.8899 58.6617 52.8899" fill="black"/>
<path d="M48.6221 55.0871C48.6068 55.0871 48.5915 55.0876 48.576 55.0887C48.1799 55.111 47.7798 55.4117 47.4424 55.7029C47.2723 55.8504 47.1051 56.0042 46.938 56.1574C46.6606 56.4122 46.3737 56.6747 46.0641 56.921L45.7491 57.1772C45.3944 57.4646 45.0398 57.7519 44.6965 58.0526C44.5536 58.1812 44.4131 58.3078 44.2786 58.4359L46.1531 58.099L49.0435 57.6192C49.5168 57.5361 49.9956 57.4451 50.4743 57.3537C51.4699 57.1638 52.4892 56.9695 53.5253 56.8423C52.9309 56.5753 52.326 56.3116 51.7231 56.0792L50.8967 55.7454L50.0604 55.4724C49.9135 55.4323 49.7374 55.3725 49.5613 55.3122C49.2251 55.1969 48.906 55.0871 48.6221 55.0871ZM43.4102 60.0878C43.065 60.0878 42.7573 59.8455 42.6852 59.4978C42.65 59.4825 42.6164 59.4647 42.5833 59.4439C42.2376 59.2234 42.1357 58.7653 42.3563 58.4192C42.7361 57.8217 43.2539 57.3552 43.711 56.9434C44.0765 56.6229 44.446 56.3236 44.8149 56.0244L45.1334 55.7657C45.4093 55.5461 45.665 55.3117 45.9351 55.064C46.1126 54.9012 46.2902 54.7385 46.4722 54.5808C46.9687 54.152 47.6473 53.6549 48.5015 53.6065C49.0876 53.5841 49.5949 53.7553 50.0426 53.9087C50.1914 53.9601 50.3403 54.011 50.4897 54.0531L51.3809 54.343C51.3967 54.3485 51.4131 54.3544 51.4289 54.3603L52.2677 54.6996C53.1075 55.023 53.9419 55.4013 54.7485 55.7669C55.0354 55.897 55.3222 56.0271 55.6096 56.1547L57.0801 56.8229C57.4045 56.9683 57.5795 57.3234 57.4985 57.6696C57.4174 58.0153 57.0988 58.2581 56.7467 58.2408C56.7422 58.2403 56.6904 58.2383 56.6864 58.2383L56.3684 58.218C56.1815 58.2056 55.995 58.1928 55.8081 58.1873L55.5123 58.1917C55.3288 58.1933 55.1448 58.1947 54.9613 58.2026C53.564 58.2748 52.1348 58.5474 50.7524 58.8115C50.2662 58.9044 49.78 58.9969 49.2929 59.082L46.4064 59.5612L43.5423 60.0766C43.4983 60.0845 43.4538 60.088 43.4103 60.088" fill="black"/>
<path d="M51.0652 42.7416C50.7388 42.7416 50.44 42.5245 50.3501 42.1946C50.2423 41.7995 50.4752 41.3914 50.8703 41.2836C51.2388 41.1837 51.538 41.0428 51.7606 40.8652C51.9747 40.6965 52.132 40.47 52.2091 40.2212C52.2354 40.0432 52.1909 39.8211 52.1404 39.5664C52.0964 39.3463 52.047 39.0975 52.037 38.8319C52.0222 38.4223 52.3417 38.0781 52.7508 38.0628C53.1612 38.0514 53.505 38.3669 53.5198 38.7766C53.5258 38.924 53.5594 39.0956 53.5956 39.2771C53.6688 39.6451 53.7519 40.0625 53.6613 40.5308C53.6574 40.5511 53.6524 40.5708 53.647 40.5902C53.4892 41.152 53.1464 41.6629 52.682 42.0285C52.3042 42.3297 51.8249 42.5617 51.2611 42.7155C51.1953 42.7333 51.13 42.7416 51.0652 42.7416Z" fill="black"/>
<path d="M57.1232 39.9491C56.7612 39.9491 56.3323 39.9105 55.912 39.7394C55.5703 39.5836 55.355 39.3694 55.1825 39.1968L55.1008 39.1166C54.8921 38.9005 54.7278 38.7076 54.5929 38.5227C54.392 38.2447 54.2867 38.0246 54.2486 37.807C54.1676 37.3807 54.4168 36.9568 54.8298 36.8312C55.1928 36.7205 55.586 36.902 55.7344 37.251C55.7888 37.3787 55.8042 37.5127 55.7864 37.6407L55.7938 37.6512C55.8858 37.7768 56.0094 37.9217 56.1499 38.0676L56.23 38.1457C56.3279 38.2436 56.4298 38.345 56.5005 38.3772C56.779 38.4899 57.1766 38.4682 57.4956 38.4523C57.8601 38.4246 58.0916 38.3925 58.1019 38.3909C58.5045 38.3355 58.8823 38.616 58.9401 39.021C58.9981 39.426 58.7162 39.8014 58.3106 39.8598C58.3106 39.8598 58.0396 39.8989 57.6295 39.9306C57.6235 39.9311 57.5804 39.9336 57.5746 39.9336C57.4431 39.9404 57.2897 39.9489 57.1231 39.9489" fill="black"/>
<path d="M55.9334 45.0347C55.7069 45.0347 55.4922 44.9309 55.3518 44.7533C55.3513 44.7533 55.2608 44.6465 55.0813 44.5406C54.8756 44.4115 54.509 44.2566 54.0892 44.2062C53.7232 44.1587 53.424 44.2428 53.335 44.3135C53.2929 44.3452 53.2653 44.3788 53.2375 44.4183L53.196 44.5158C53.0343 44.8922 52.597 45.0657 52.2217 44.904C51.8448 44.7424 51.6713 44.3061 51.8329 43.9297L51.8992 43.775C51.915 43.7373 51.9343 43.7017 51.956 43.6672C52.0248 43.5599 52.1677 43.3353 52.4283 43.139C52.8596 42.7982 53.5546 42.6429 54.2707 42.7334C54.8384 42.8016 55.4171 42.9989 55.8533 43.2739C56.2327 43.497 56.4552 43.7572 56.5141 43.8309C56.6912 44.0539 56.7253 44.3591 56.6011 44.6152C56.4774 44.8714 56.2183 45.0347 55.9334 45.0347Z" fill="black"/>
<path d="M58.2883 44.3301C58.1593 44.3301 57.9817 44.3043 57.7843 44.202C57.4742 44.0502 57.226 43.7044 57.1365 43.2855C57.0104 42.7593 57.0726 42.0565 57.312 41.3759C57.6172 40.4822 58.2048 39.8877 58.8814 39.7912C59.2023 39.7492 59.5303 39.8105 59.8132 39.9638C59.9408 40.0266 60.0283 40.0914 60.0837 40.1359L59.6322 40.7082L59.7543 41.4574C59.547 41.4906 59.322 41.4257 59.1583 41.2952C59.141 41.2872 59.1241 41.2788 59.1079 41.2689C59.0327 41.2843 58.8388 41.4965 58.7141 41.862C58.5667 42.2799 58.537 42.6647 58.5712 42.8926C58.8136 42.9837 59.0006 43.1998 59.043 43.4743C59.1049 43.8793 58.8274 44.2577 58.4224 44.32C58.3877 44.3255 58.3422 44.3299 58.2883 44.3299" fill="black"/>
</svg>
