<svg width="100" height="100" viewBox="0 0 100 100" fill="none" xmlns="http://www.w3.org/2000/svg">
<path d="M46.7895 30.6617C46.72 30.7024 46.6425 30.7326 46.5591 30.7492L45.864 30.8906C45.4717 30.9675 44.9345 31.0737 44.2641 31.2824C42.2073 31.8614 40.1627 32.7698 38.1662 33.989C35.4415 35.6252 32.6963 37.9592 30.2221 40.7417C27.4174 43.8588 24.819 47.784 22.7039 52.0952C20.2679 57.1029 18.6513 62.2751 17.9003 67.4655C17.4783 70.4447 17.3968 73.3913 17.6589 76.2205C17.8525 77.9182 18.1162 79.325 18.4853 80.6322C18.9234 82.1432 19.4954 83.5647 20.1834 84.8527C21.5687 87.4934 23.7014 89.8635 26.3542 91.712C28.7952 93.4211 31.7367 94.7606 35.0971 95.6931C37.9758 96.5085 41.1702 97.0391 44.8662 97.3178C48.1824 97.5462 51.5595 97.5492 54.8988 97.3263C58.6153 97.0538 61.836 96.5236 64.7393 95.7057C68.1682 94.7571 71.1539 93.3925 73.6171 91.6491C76.2754 89.785 78.4347 87.3325 79.8642 84.5545C80.5458 83.2215 81.1021 81.7427 81.5166 80.1594C81.6917 79.5387 81.8073 78.9251 81.9301 78.2746L82.0106 77.8521C82.0292 77.6972 82.0568 77.495 82.0845 77.2928C82.1655 76.7018 82.2419 76.143 82.2716 75.5812C82.5055 72.7418 82.3561 69.7536 81.8164 66.4238C81.3672 63.6403 80.6238 60.7712 79.6072 57.8961C77.7577 52.6735 75.2147 47.8856 72.0483 43.6661C69.148 39.7971 65.7664 36.5674 62.2697 34.3261C60.7396 33.3317 59.053 32.4882 57.2534 31.8177C56.6105 31.5607 55.9668 31.3796 55.344 31.2046L54.8581 31.0667C54.6473 31.0184 54.3994 30.9687 54.1559 30.9198L53.0126 30.7025L51.6329 30.5325L50.643 30.4882C50.0982 30.4455 49.5918 30.4762 49.1013 30.5059L48.2663 30.5537C47.9232 30.5723 47.5978 30.5894 47.291 30.6136L46.7896 30.6618L46.7895 30.6617ZM49.9386 99.0002C48.2043 99.0002 46.474 98.9413 44.7573 98.8226C40.9547 98.5364 37.6626 97.9881 34.6895 97.1461C31.167 96.1678 28.0706 94.7554 25.4898 92.9486C22.6409 90.9638 20.3442 88.4076 18.8499 85.5582C18.115 84.183 17.5034 82.6635 17.0345 81.0469C16.6412 79.6547 16.3631 78.1718 16.1578 76.3751C15.8831 73.413 15.9676 70.3488 16.4068 67.2515C17.1799 61.9042 18.8423 56.5826 21.3481 51.4324C23.5245 46.9956 26.2035 42.9516 29.0972 39.7354C31.6685 36.8438 34.5351 34.4088 37.3845 32.6981C39.1374 31.6277 40.9331 30.7812 42.7348 30.1756C42.7594 29.818 43.0371 29.5186 43.4053 29.478L47.1596 29.1103C47.4915 29.0841 47.8291 29.0655 48.1847 29.0464L49.0096 28.9997C49.5261 28.9675 50.1111 28.9318 50.7363 28.9821L51.7297 29.0264C51.7494 29.0268 51.7684 29.0284 51.788 29.0309L53.4202 29.2322C53.4399 29.2347 53.4585 29.2377 53.4776 29.2417L54.4528 29.4404C54.7114 29.4922 54.974 29.5451 55.2385 29.6069L55.752 29.7518C56.4129 29.9379 57.096 30.1295 57.7961 30.4097C59.6828 31.1128 61.4689 32.0057 63.0875 33.058C66.7307 35.3933 70.2481 38.7493 73.255 42.7606C76.5134 47.1024 79.1288 52.0256 81.0292 57.3925C82.0759 60.3531 82.842 63.3106 83.3057 66.1828C83.8649 69.6343 84.0189 72.7422 83.7765 75.6827C83.7453 76.2853 83.6608 76.9019 83.5787 77.498C83.5516 77.6958 83.5244 77.8929 83.4993 78.0911L83.4127 78.5549C83.289 79.2089 83.1613 79.8849 82.9716 80.5558C82.5335 82.2303 81.9385 83.8117 81.2061 85.2431C79.6645 88.24 77.3406 90.8811 74.4857 92.8825C71.8828 94.7255 68.739 96.165 65.1447 97.1594C62.1458 98.0039 58.8276 98.5511 55.0039 98.8318C53.3199 98.9439 51.6273 99.0003 49.9383 99.0003" fill="black"/>
<path d="M82.4728 78.5979C82.0955 78.5979 81.7701 78.3158 81.7243 77.9319L81.6247 77.0919L81.429 76.1222L81.25 75.5131C81.1952 75.3048 81.1233 75.098 81.0307 74.8777C80.6102 73.7627 79.9819 72.6973 79.2032 71.7702C78.2637 70.6446 77.0157 69.5892 75.5928 68.7166C74.0959 67.8066 72.34 67.013 70.3774 66.358C68.4977 65.7403 66.3796 65.2233 64.0854 64.8224C60.0152 64.1217 55.255 63.764 49.9394 63.7591C44.6253 63.7642 39.8651 64.1217 35.7923 64.8228C33.5001 65.2233 31.3826 65.7403 29.4994 66.359C27.5398 67.0129 25.7838 67.8066 24.2844 68.718C22.8644 69.5892 21.6161 70.6444 20.678 71.7687C19.8984 72.6972 19.27 73.7626 18.8602 74.8514C18.7566 75.0979 18.6852 75.3046 18.6364 75.4907L18.4026 76.3639L18.2552 77.0917L18.1556 77.9316C18.1068 78.3456 17.7321 78.6374 17.3176 78.5926C16.9041 78.5433 16.6083 78.168 16.6571 77.7546L16.7602 76.8833C16.7627 76.8632 16.7662 76.8427 16.7697 76.8225L16.9785 75.7908C16.9825 75.7697 16.988 75.7486 16.994 75.7275L17.1826 75.0872C17.2439 74.8497 17.336 74.5832 17.4582 74.2925C17.9239 73.0552 18.6216 71.8707 19.5204 70.8003C20.5616 69.5534 21.9373 68.3875 23.4981 67.4297C25.0966 66.4584 26.9552 65.6164 29.0249 64.9264C30.98 64.2841 33.169 63.7489 35.5346 63.336C39.6928 62.6202 44.5385 62.2551 49.9392 62.25C55.3413 62.2551 60.1871 62.6202 64.3433 63.336C66.7108 63.7489 68.8999 64.2841 70.8515 64.9255C72.9249 65.6166 74.7829 66.4586 76.3789 67.4283C77.9427 68.3875 79.3184 69.5534 80.3606 70.8014C81.2585 71.8707 81.9561 73.0553 82.4318 74.3193C82.5435 74.5834 82.6361 74.85 82.7035 75.1095L82.8855 75.7277C82.8915 75.7488 82.8971 75.77 82.9015 75.7911L83.1098 76.8227C83.1138 76.8429 83.1173 76.8634 83.1198 76.8836L83.2229 77.7548C83.2717 78.1682 82.9759 78.5434 82.562 78.5928C82.5323 78.5963 82.5021 78.5979 82.4724 78.5979" fill="black"/>
<path d="M51.4837 59.5719C51.0134 59.5719 50.5683 59.4466 50.1941 59.1972C49.9053 59.0116 49.6599 58.7616 49.4591 58.4502C49.3405 58.5724 49.2197 58.6835 49.094 58.7872C48.4959 59.2963 47.7424 59.5663 47.0106 59.5623C46.645 59.5568 46.2682 59.4743 45.8905 59.3179C45.5178 59.1414 45.216 58.8868 44.9328 58.5242C44.5143 57.9814 44.2508 57.3708 44.0284 56.7909C43.879 56.4021 44.0732 55.9656 44.4625 55.8161C44.8513 55.6668 45.2879 55.8614 45.4373 56.2502C45.647 56.7965 45.8442 57.235 46.1244 57.5992C46.2552 57.7668 46.384 57.8824 46.5042 57.9393C46.6702 58.0071 46.8603 58.051 47.0349 58.0535C47.4207 58.0736 47.8024 57.9056 48.1248 57.6315C48.3105 57.4775 48.4749 57.3076 48.6207 57.12C48.6967 57.0174 48.7642 56.9284 48.8225 56.8333C48.8607 56.7734 48.8898 56.7297 48.9155 56.6829L48.9769 56.5742C49.1891 56.1754 49.5679 56.1004 49.8294 56.1587C50.1256 56.2235 50.357 56.4816 50.4153 56.7779H50.4158C50.531 57.3613 50.7347 57.7506 51.0208 57.9352C51.3463 58.1515 51.8146 58.0559 52.1486 57.8969C52.6043 57.6811 52.9957 57.3286 53.2541 56.9015C53.4995 56.5011 53.5659 56.0469 53.4301 55.7134C53.2727 55.3276 53.4573 54.8874 53.8431 54.73C54.2284 54.5726 54.6695 54.7572 54.8269 55.143C55.1459 55.9246 55.0398 56.8753 54.5433 57.6866C54.1349 58.3606 53.5141 58.9205 52.7964 59.2595C52.3613 59.4677 51.9121 59.5717 51.4836 59.5717" fill="black"/>
<path d="M35.4955 46.9486C35.4844 46.9602 35.4649 46.9783 35.4437 47.0049C35.3366 47.1387 35.2446 47.3434 35.1767 47.5904C35.0128 48.2101 35.0092 48.9102 35.1677 49.5556C35.2633 49.9247 35.3961 50.1914 35.5716 50.3614C35.7084 50.5062 35.9377 50.5566 36.1465 50.5072C36.48 50.4252 36.7254 50.2885 36.832 50.1234C37.0085 49.8734 37.1122 49.5697 37.1584 49.1939C37.2354 48.53 37.1257 47.8484 36.8571 47.3309C36.7505 47.1282 36.6232 46.9672 36.5105 46.8923C36.4311 46.8375 36.3576 46.8169 36.3063 46.8093L36.4184 47.0145C36.1765 47.1473 35.8803 47.1357 35.6479 46.9864C35.6398 46.9829 35.6056 46.9673 35.5896 46.9597C35.5578 46.9582 35.5267 46.9541 35.4955 46.9486ZM35.987 52.0338C35.4145 52.0343 34.8643 51.8135 34.4952 51.4181C34.1411 51.0771 33.8735 50.5791 33.7045 49.9243C33.4841 49.0289 33.4907 48.0642 33.7195 47.1986C33.8458 46.7373 34.0269 46.3596 34.2598 46.0694C34.5515 45.6942 34.9725 45.4577 35.408 45.4296C35.4553 45.4266 35.5011 45.4261 35.5478 45.4261C35.6871 45.3732 35.9109 45.3119 36.2052 45.2973C36.6162 45.2887 37.0251 45.415 37.3551 45.6418C37.675 45.854 37.9612 46.1896 38.1941 46.6317C38.6 47.4133 38.7679 48.4118 38.6568 49.3735C38.5788 50.0053 38.3856 50.5399 38.0813 50.9691C37.7735 51.4464 37.2353 51.7934 36.5009 51.974C36.3303 52.0147 36.1573 52.0339 35.9869 52.0339" fill="black"/>
<path d="M59.9697 46.0588C59.8717 46.1423 59.772 46.2645 59.6805 46.4128C59.3671 46.9289 59.1825 47.6195 59.1781 48.3026C59.1765 48.6752 59.2429 49.0022 59.3752 49.2713C59.4859 49.5127 59.7002 49.6978 59.944 49.7753C60.2322 49.8684 60.5099 49.8614 60.6904 49.7572C60.949 49.6168 61.1009 49.3272 61.1854 49.1079C61.3871 48.546 61.3976 47.864 61.2081 47.2513C61.0576 46.7504 60.7765 46.4319 60.5808 46.3097C60.4631 46.2383 60.3696 46.2062 60.3354 46.196L60.1991 46.1613C60.1151 46.1392 60.0382 46.1041 59.9697 46.0588ZM60.3335 51.3496C60.0558 51.3496 59.7681 51.3043 59.4838 51.2122C58.8405 51.0084 58.2887 50.5236 58.0121 49.918C57.7852 49.4572 57.6666 48.9044 57.669 48.2939C57.6755 47.3302 57.9331 46.383 58.3938 45.6244C58.6619 45.1899 58.9732 44.8725 59.3212 44.6763C59.7307 44.4354 60.2397 44.3887 60.6723 44.5577C60.9565 44.6552 61.1633 44.8232 61.3081 44.9581C61.3408 44.9852 61.3715 45.0139 61.3992 45.0416C61.963 45.4063 62.4267 46.0626 62.6516 46.8117C62.8166 47.3459 63.0319 48.4309 62.5998 49.6339C62.3412 50.3049 61.9373 50.7974 61.4258 51.0745C61.1099 51.256 60.7323 51.3496 60.3335 51.3496Z" fill="black"/>
<path d="M35.7882 34.0357C35.6615 34.0357 35.5327 34.0035 35.415 33.9361L34.7289 33.5448C34.0796 33.1328 33.4514 32.6519 32.8297 32.0971C31.9404 31.2541 31.1397 30.3451 30.4335 29.381C29.5773 28.2045 28.7811 26.8675 28.0658 25.4054C26.5619 22.3805 25.489 18.5622 24.9659 14.3688C24.6843 11.8625 24.8065 9.7071 25.3381 7.77068C25.6831 6.58258 26.1931 5.51882 26.8582 4.59787C27.5769 3.61403 28.4461 2.79363 29.4436 2.15588C29.9873 1.78818 30.589 1.53467 31.0496 1.35613C31.0682 1.34913 31.0868 1.34249 31.106 1.33706C31.6708 1.16757 32.288 0.999051 32.9379 1.00666C34.1174 0.94171 35.3733 1.35372 36.4296 2.16953C38.0045 3.39879 39.2816 5.16174 40.3363 7.56256C41.0541 9.24198 41.6254 11.0845 42.138 13.3691C42.4177 14.5994 42.641 15.7824 42.8572 16.9267C42.9659 17.5022 43.0715 18.0629 43.1806 18.6072C43.9718 22.4697 44.1051 25.307 44.1141 26.654C44.1348 27.4628 44.0895 28.1409 44.0568 28.6363L44.0382 28.9325C44.0256 29.2087 44.0034 29.4386 43.9739 29.6065L43.9507 29.7769C43.8938 30.1894 43.5136 30.4796 43.1006 30.4212C42.6881 30.3648 42.3995 29.9841 42.4557 29.5717L42.4838 29.37C42.4985 29.284 42.5175 29.1432 42.5312 28.8544L42.5513 28.5366C42.584 28.0442 42.6242 27.4315 42.6052 26.678C42.5966 25.3717 42.4679 22.6461 41.7018 18.9068C41.5911 18.3541 41.4841 17.7877 41.3744 17.2068C41.1607 16.076 40.9399 14.9066 40.6657 13.7014C40.1738 11.5069 39.6296 9.74742 38.952 8.16253C38.0028 6.00374 36.8741 4.4308 35.5041 3.36149C34.7486 2.77806 33.8286 2.47023 32.9741 2.51441C32.4696 2.51743 32.0144 2.6402 31.5672 2.77396C31.184 2.9234 30.6966 3.13007 30.2721 3.41629C29.4291 3.95602 28.6761 4.66728 28.079 5.48454C27.5181 6.26111 27.0836 7.16951 26.7903 8.18052C26.313 9.91836 26.2053 11.888 26.4644 14.1913C26.9659 18.2091 27.988 21.8593 29.419 24.738C30.098 26.1257 30.849 27.3872 31.6527 28.4913C32.3041 29.3811 33.044 30.2215 33.8512 30.9866C34.5333 31.5953 35.1299 32.0127 35.5076 32.2532L36.163 32.6259C36.5251 32.8326 36.6509 33.2933 36.4441 33.655C36.3048 33.8989 36.0503 34.0357 35.7882 34.0357Z" fill="black"/>
<path d="M63.7701 34.0351C63.5081 34.0351 63.2536 33.8984 63.1143 33.6544C62.9075 33.2927 63.0333 32.8321 63.3954 32.6253L64.0821 32.2334C64.4287 32.0122 65.0251 31.5946 65.7234 30.971C66.5145 30.2211 67.2544 29.3805 67.9074 28.4893C68.7097 27.3868 69.4606 26.1253 70.1376 24.7415C71.5707 21.8589 72.5927 18.2086 73.0957 14.1817C73.3532 11.8876 73.2456 9.91789 72.7653 8.16955C72.4751 7.16904 72.0405 6.26077 71.4771 5.48009C70.8826 4.66682 70.1295 3.95555 69.3021 3.42645C68.8625 3.12973 68.3747 2.92294 67.9914 2.77361C67.5433 2.64034 67.0503 2.52313 66.6303 2.51504C65.7375 2.46772 64.81 2.77711 64.0514 3.36356C62.6843 4.43034 61.5556 6.00328 60.6035 8.16906C59.929 9.74696 59.3847 11.5064 58.8933 13.6984C58.6186 14.906 58.3979 16.0756 58.1841 17.2062C58.0745 17.7871 57.9673 18.3535 57.8572 18.9032C57.0906 22.6455 56.9618 25.3711 56.9534 26.6628C56.9343 27.4309 56.9745 28.0436 57.0072 28.536L57.0269 28.8448C57.041 29.1426 57.0601 29.2833 57.0706 29.3413L57.1028 29.5711C57.1592 29.9836 56.8704 30.3644 56.4579 30.4206C56.0419 30.4784 55.6642 30.1887 55.6078 29.7763L55.5802 29.5781C55.5551 29.4379 55.5329 29.2079 55.5198 28.9228L55.5017 28.6356C55.469 28.1402 55.4237 27.4621 55.4449 26.6387C55.4534 25.3063 55.5867 22.4689 56.3784 18.6035C56.487 18.0623 56.5926 17.5015 56.7013 16.926C56.9176 15.7817 57.1409 14.5987 57.4211 13.3663C57.9332 11.0838 58.5046 9.24128 59.2189 7.56886C60.2772 5.16104 61.5543 3.39808 63.1261 2.17135C64.1854 1.35301 65.4404 0.93847 66.6666 1.0074C67.2793 0.983739 67.8873 1.16687 68.4528 1.33635C68.4719 1.34191 68.4904 1.34843 68.5092 1.35543C68.9699 1.53397 69.5715 1.78747 70.1312 2.1652C71.1125 2.79293 71.9817 3.61332 72.698 4.59318C73.3655 5.51812 73.8755 6.582 74.2175 7.75899C74.7522 9.70652 74.8745 11.8619 74.5943 14.3592C74.0696 18.5616 72.9968 22.3799 71.4909 25.4094C70.7777 26.8671 69.9814 28.204 69.1264 29.3789C68.4192 30.3447 67.6184 31.2536 66.7452 32.0816C66.1075 32.6515 65.4793 33.1323 64.8611 33.5256L64.1438 33.9355C64.0261 34.0029 63.8973 34.0351 63.7705 34.0351" fill="black"/>
</svg>
