<svg width="100" height="100" viewBox="0 0 100 100" fill="none" xmlns="http://www.w3.org/2000/svg">
<path d="M46.7551 30.6615C46.6853 30.7022 46.6079 30.7324 46.525 30.749L45.8307 30.8904C45.4388 30.9674 44.9022 31.0735 44.2325 31.2822C42.1786 31.8612 40.1357 32.7696 38.1415 33.9888C35.4193 35.625 32.677 37.9589 30.2061 40.7415C27.4046 43.8586 24.809 47.7838 22.6963 52.095C20.2625 57.1032 18.6482 62.2755 17.898 67.4654C17.4764 70.445 17.3946 73.3911 17.6568 76.2199C17.8502 77.9174 18.113 79.3244 18.4823 80.6321C18.9195 82.1411 19.4902 83.563 20.1786 84.8527C21.5623 87.4934 23.6931 89.8634 26.3424 91.7119C28.7813 93.4211 31.7191 94.7605 35.0762 95.6931C37.9517 96.5084 41.1421 97.0391 44.834 97.3177C48.146 97.5461 51.5183 97.5491 54.8554 97.3263C58.5684 97.0537 61.785 96.5235 64.6855 95.7056C68.1106 94.757 71.0931 93.3923 73.553 91.649C76.2084 89.7849 78.3653 87.3324 79.7932 84.5544C80.4736 83.222 81.0297 81.7426 81.4438 80.1593C81.6186 79.539 81.7341 78.9254 81.8568 78.2756L81.9372 77.8521C81.9558 77.6973 81.9829 77.495 82.0111 77.2928C82.092 76.7018 82.1684 76.143 82.198 75.5812C82.4317 72.7423 82.2824 69.754 81.7438 66.4238C81.2946 63.6408 80.552 60.7717 79.5361 57.8961C77.6887 52.673 75.149 47.8851 71.9862 43.666C69.0882 39.7966 65.7107 36.5669 62.2179 34.326C60.6895 33.3311 59.0053 32.4881 57.2081 31.8176C56.5655 31.5606 55.9219 31.3795 55.2999 31.2045L54.815 31.0666C54.6035 31.0179 54.3559 30.9686 54.1122 30.9192L52.5481 30.6502L51.594 30.5325L50.6043 30.4882C50.0602 30.4445 49.5537 30.4761 49.0648 30.5058L48.2302 30.5536C47.8875 30.5722 47.5625 30.5893 47.2565 30.6135L46.7556 30.6618L46.7551 30.6615ZM49.9009 99.0001C48.1685 99.0001 46.4401 98.9412 44.7253 98.8226C40.9269 98.5363 37.639 97.9882 34.6691 97.146C31.1501 96.1682 28.0572 94.7558 25.4791 92.9486C22.6333 90.9637 20.3392 88.4075 18.8465 85.5581C18.1114 84.1815 17.5004 82.6619 17.0332 81.0468C16.6398 79.6541 16.3619 78.1712 16.158 76.375C15.8831 73.4135 15.9676 70.3487 16.4061 67.2513C17.1783 61.905 18.8389 56.5834 21.342 51.4323C23.516 46.9954 26.1925 42.9514 29.0825 39.7352C31.6509 36.8436 34.5148 34.4086 37.3605 32.6979C39.1115 31.6275 40.9052 30.781 42.7045 30.1754C42.7291 29.8178 43.0064 29.5184 43.3747 29.4778L47.1248 29.11C47.4564 29.0839 47.7931 29.0657 48.1483 29.0462L48.9723 28.9995C49.4888 28.9672 50.0736 28.9321 50.6976 28.9818L51.6899 29.0261C51.7094 29.0266 51.7291 29.0282 51.7481 29.0307L53.379 29.232C53.3981 29.2345 53.4166 29.2375 53.4358 29.2415L54.4079 29.4397C54.6672 29.4915 54.93 29.5449 55.1952 29.6067L55.7068 29.7511C56.3674 29.9372 57.0503 30.1293 57.7502 30.4095C59.6348 31.1126 61.4184 32.0055 63.0347 33.0577C66.6734 35.3921 70.1868 38.7481 73.1914 42.7604C76.4456 47.1018 79.0583 52.025 80.9565 57.3923C82.0026 60.3534 82.7678 63.311 83.2311 66.1826C83.7897 69.6347 83.9439 72.7426 83.7013 75.6826C83.6702 76.2852 83.5858 76.9018 83.5038 77.4978C83.4767 77.6956 83.4496 77.8927 83.4245 78.0909L83.3375 78.5557C83.214 79.2091 83.0869 79.8845 82.8979 80.555C82.4592 82.2304 81.8648 83.8118 81.1339 85.2428C79.5934 88.2396 77.2727 90.8808 74.4209 92.8822C71.8213 94.7252 68.6811 96.1647 65.0902 97.1591C62.0947 98.0036 58.7807 98.5508 54.9602 98.8315C53.2781 98.9436 51.5879 99 49.9008 99" fill="black"/>
<path d="M82.3997 78.5977C82.0229 78.5977 81.6978 78.3156 81.6526 77.9317L81.5526 77.0917L81.3033 75.9409L81.1783 75.5138C81.1231 75.3026 81.0537 75.1024 80.9592 74.8775C80.5386 73.7619 79.9116 72.6971 79.1344 71.7706C78.1954 70.6444 76.9484 69.5886 75.5275 68.7165C74.0323 67.8065 72.2783 67.0128 70.3178 66.3579C68.4402 65.7402 66.3249 65.2231 64.0329 64.8222C59.9671 64.1216 55.2122 63.7639 49.9025 63.759C44.5943 63.764 39.8393 64.1216 35.7716 64.8227C33.4814 65.2232 31.3663 65.7402 29.4856 66.3589C27.5276 67.0128 25.7742 67.8065 24.276 68.7179C22.8577 69.5885 21.6111 70.6443 20.6735 71.7686C19.8948 72.6971 19.2678 73.762 18.8573 74.8515C18.7523 75.1024 18.6834 75.3026 18.6347 75.4898L18.4494 76.122L18.2524 77.0978L18.1539 77.9317C18.1052 78.3456 17.7358 78.6409 17.3168 78.5926C16.9038 78.5433 16.6084 78.168 16.6571 77.7546L16.7601 76.8834C16.7626 76.8632 16.7656 76.8432 16.7696 76.823L16.9786 75.7899C16.9826 75.7693 16.9881 75.7481 16.9937 75.7275L17.182 75.0862C17.2423 74.8518 17.3348 74.5848 17.4573 74.2925C17.9225 73.0547 18.6194 71.8701 19.5179 70.7998C20.5574 69.5534 21.9316 68.3869 23.4906 67.4297C25.0874 66.4584 26.9438 65.6164 29.0113 64.9264C30.9643 64.2836 33.1508 63.7489 35.5142 63.336C39.6674 62.6202 44.5077 62.2551 49.9024 62.25C55.2985 62.2551 60.1384 62.6202 64.2906 63.336C66.6556 63.7489 68.8421 64.2836 70.7915 64.9255C72.8625 65.6166 74.719 66.4586 76.3132 67.4283C77.8743 68.387 79.249 69.5534 80.29 70.8014C81.1869 71.8702 81.8837 73.0548 82.3589 74.3193C82.4714 74.5849 82.5635 74.8521 82.6307 75.11L82.8121 75.7277C82.8181 75.7484 82.8237 75.7695 82.8276 75.7902L83.0317 76.7991C83.0357 76.8193 83.0432 76.8634 83.0458 76.8836L83.1488 77.7548C83.198 78.1683 82.9025 78.5435 82.4895 78.5928C82.4589 78.5963 82.4292 78.5979 82.3996 78.5979" fill="black"/>
<path d="M51.9373 59.5724C51.4675 59.5724 51.0234 59.4471 50.6496 59.1977C50.3612 59.0122 50.1161 58.7627 49.9155 58.4513C49.7995 58.5705 49.6778 58.6827 49.5507 58.7879C48.9534 59.2969 48.2023 59.5746 47.4691 59.563C47.1039 59.5575 46.7275 59.475 46.3507 59.3181C45.9779 59.1421 45.6759 58.887 45.3935 58.5248C44.9755 57.9816 44.7122 57.371 44.4907 56.7916C44.3414 56.4023 44.5359 55.9662 44.9243 55.8168C45.3122 55.6679 45.7494 55.8621 45.8976 56.2509C46.1071 56.7971 46.3036 57.2357 46.5844 57.5999C46.715 57.7675 46.8432 57.8831 46.9638 57.94C47.1296 58.0078 47.3195 58.0516 47.4933 58.0542C47.8456 58.0653 48.26 57.9063 48.5821 57.6321C48.768 57.4777 48.9328 57.3082 49.0779 57.1207C49.1554 57.0155 49.2217 56.9275 49.279 56.8339C49.3191 56.7715 49.3478 56.7288 49.3724 56.6835L49.4327 56.5759C49.6442 56.1775 50.0215 56.1025 50.2833 56.1589C50.5803 56.2232 50.8129 56.4818 50.8711 56.7791C50.9857 57.3626 51.1891 57.7514 51.475 57.9355C51.8011 58.1528 52.2688 58.0572 52.6015 57.8978C53.0567 57.682 53.4481 57.3295 53.7063 56.9024C53.9515 56.502 54.0178 56.0478 53.8816 55.7143C53.7244 55.3285 53.9092 54.8883 54.2946 54.7309C54.681 54.5735 55.1201 54.7586 55.2769 55.1439C55.5955 55.9255 55.4895 56.8762 54.9935 57.6875C54.5856 58.3615 53.9651 58.9214 53.2491 59.2604C52.814 59.4686 52.3658 59.5728 51.9372 59.5728" fill="black"/>
<path d="M35.7673 34.0356C35.6402 34.0356 35.512 34.0034 35.394 33.936L34.7092 33.5447C34.0596 33.1322 33.4319 32.6514 32.812 32.097C31.9227 31.253 31.1229 30.3446 30.4184 29.3809C29.5633 28.2049 28.7679 26.8679 28.053 25.4053C26.5501 22.3793 25.4789 18.5616 24.9565 14.3687C24.6751 11.8624 24.7972 9.70697 25.3288 7.77054C25.673 6.58147 26.1835 5.51771 26.8472 4.59724C27.5657 3.61339 28.4334 2.793 29.4292 2.15573C29.9732 1.78802 30.5737 1.53452 31.0339 1.35598C31.0525 1.34897 31.071 1.34234 31.0897 1.3369C31.6544 1.16742 32.2473 1.00445 32.92 1.00638C34.0943 0.943002 35.3528 1.35344 36.4075 2.16925C37.9806 3.39851 39.2562 5.16147 40.3104 7.5623C41.0269 9.24027 41.5976 11.0827 42.1096 13.3688C42.3884 14.5971 42.6115 15.7787 42.8276 16.9214C42.9366 17.4983 43.0421 18.0612 43.1517 18.6069C43.9425 22.4708 44.0751 25.3067 44.0842 26.6536C44.1043 27.4599 44.0596 28.137 44.0269 28.6314L44.0079 28.9322C43.9948 29.2184 43.9733 29.4417 43.9436 29.6077L43.9199 29.7818C43.8601 30.1938 43.4803 30.4815 43.0659 30.4206C42.6544 30.3612 42.369 29.9784 42.4283 29.5661L42.4555 29.3714C42.4705 29.2848 42.4891 29.1471 42.5032 28.8528L42.5233 28.5324C42.556 28.0409 42.5962 27.4293 42.5771 26.6773C42.5686 25.3721 42.4394 22.6474 41.6748 18.9066C41.5637 18.3523 41.4563 17.7839 41.3467 17.2015C41.1336 16.0723 40.9126 14.9043 40.6392 13.7011C40.1478 11.5051 39.6036 9.74559 38.9279 8.16226C37.9793 6.00347 36.8518 4.43053 35.4838 3.36121C34.7292 2.77718 33.8031 2.47092 32.9566 2.51414C32.4577 2.52874 31.9984 2.64041 31.5513 2.77368C31.1685 2.92313 30.6815 3.1298 30.2571 3.41602C29.4155 3.95575 28.6633 4.66701 28.0669 5.48427C27.5072 6.26036 27.0726 7.16876 26.7792 8.18025C26.3029 9.9181 26.1953 11.8877 26.4536 14.191C26.9545 18.2079 27.975 21.858 29.4049 24.7377C30.0837 26.126 30.8343 27.3875 31.6362 28.4911C32.2858 29.3804 33.0259 30.2204 33.8329 30.9864C34.5132 31.5946 35.1095 32.012 35.4874 32.253L36.142 32.6257C36.5033 32.8323 36.6294 33.2931 36.4229 33.6548C36.2833 33.8987 36.0294 34.0355 35.7678 34.0355" fill="black"/>
<path d="M63.7173 34.0351C63.4555 34.0351 63.2018 33.8984 63.0622 33.6544C62.8556 33.2927 62.9817 32.8321 63.343 32.6253L64.0289 32.2334C64.3751 32.0126 64.9699 31.5957 65.6688 30.971C66.4591 30.22 67.1993 29.38 67.8504 28.4892C68.6508 27.3872 69.4014 26.1257 70.0777 24.7415C71.5102 21.8578 72.5306 18.2076 73.0325 14.1817C73.2897 11.8876 73.1823 9.91783 72.703 8.16948C72.4126 7.16849 71.9779 6.2601 71.4157 5.4805C70.8219 4.66663 70.0698 3.95548 69.2432 3.42625C68.8035 3.12953 68.3167 2.92274 67.9339 2.77342C67.4877 2.64014 67.0315 2.50482 66.5748 2.51484C65.6749 2.46752 64.7565 2.77692 63.9989 3.36336C62.6333 4.43026 61.5058 6.00309 60.5542 8.16888C59.8799 9.74823 59.3363 11.5077 58.8463 13.6982C58.5725 14.9038 58.3515 16.0718 58.1384 17.2011C58.0289 17.7835 57.9213 18.3519 57.8108 18.9032C57.0455 22.647 56.9164 25.3716 56.9078 26.6628C56.8888 27.4289 56.9289 28.0405 56.9616 28.5319L56.9811 28.8452C56.9957 29.1466 57.0143 29.2844 57.0249 29.3402L57.0565 29.5656C57.1158 29.9781 56.8304 30.3607 56.419 30.4201C56.003 30.482 55.6246 30.1938 55.5649 29.7813L55.5362 29.5765C55.5116 29.4412 55.49 29.2179 55.4764 28.9242L55.4578 28.631C55.4251 28.1365 55.3804 27.4595 55.4005 26.6391C55.4096 25.3062 55.5422 22.4704 56.3336 18.6033C56.4426 18.0606 56.5481 17.4978 56.6571 16.9208C56.8732 15.7779 57.0963 14.5965 57.3756 13.3661C57.886 11.0851 58.4568 9.24218 59.1713 7.56867C60.2285 5.16084 61.5041 3.39789 63.0742 2.17115C64.1319 1.35281 65.3834 0.939356 66.6108 1.0072C66.6199 1.00672 66.6294 1.00671 66.6389 1.00671C67.2434 1.00671 67.8392 1.16968 68.3949 1.33615C68.4134 1.34171 68.432 1.34822 68.4507 1.35523C68.911 1.53377 69.5114 1.78727 70.0711 2.165C71.0513 2.79225 71.9191 3.61264 72.6351 4.59299C73.3013 5.51696 73.8117 6.58084 74.1535 7.75881C74.6875 9.70634 74.8097 11.8617 74.5293 14.359C74.0058 18.561 72.9346 22.3786 71.4298 25.4087C70.7168 26.8673 69.9216 28.2042 69.0674 29.3788C68.362 30.3441 67.5621 31.2525 66.6893 32.0808C66.0517 32.6517 65.4237 33.1331 64.8067 33.5255L64.0907 33.9354C63.9726 34.0028 63.8444 34.035 63.7173 34.035" fill="black"/>
<path d="M35.7857 48.3894C35.8597 48.4337 35.9334 48.4784 36.0058 48.5243C36.0279 48.5384 36.0501 48.554 36.0707 48.5705L36.3295 48.7722C36.4927 48.8985 36.656 49.0253 36.8148 49.1565C36.8313 49.1706 36.8475 49.1852 36.863 49.2003L37.5242 49.8542C37.8111 50.1695 38.0789 50.4975 38.327 50.8376C38.3647 50.649 38.408 50.4569 38.4567 50.2612C38.6225 49.6395 38.8224 49.1139 39.0716 48.644C39.2018 48.4016 39.339 48.1848 39.4851 47.9922C39.4645 47.9801 39.4439 47.968 39.4233 47.9559C39.4047 47.9454 39.3866 47.9339 39.369 47.9212C38.9766 47.6486 38.6425 47.3735 38.3485 47.0801C38.157 46.8921 37.9727 46.6959 37.7964 46.4926C37.5346 46.9286 37.1955 47.3306 36.789 47.6791C36.4871 47.9412 36.1515 48.1785 35.7856 48.3893M38.9771 54.2748C38.6801 54.2748 38.4018 54.0983 38.2823 53.8126C37.8251 52.7231 37.204 51.7427 36.4374 50.8988L35.828 50.2977C35.6902 50.1845 35.5485 50.0754 35.4079 49.9658L35.1698 49.7807C35.0216 49.6876 34.8683 49.6001 34.7156 49.5126L34.4644 49.3668C34.3971 49.3391 34.3287 49.3134 34.2604 49.2883L33.7217 49.0841C33.7173 49.082 33.7127 49.0806 33.7082 49.0785C33.3931 48.9583 33.1772 48.6344 33.2062 48.2978C33.2334 47.989 33.4569 47.7274 33.7493 47.6374C34.5698 47.3783 35.2617 47.0076 35.8053 46.5358C36.2791 46.1294 36.6172 45.6289 36.7841 45.0963C36.778 45.0858 36.7715 45.0751 36.765 45.064C36.5515 44.7065 36.6685 44.2432 37.0263 44.0299C37.3514 43.8347 37.7669 43.9147 37.9985 44.2034C38.1989 44.3221 38.3351 44.5299 38.3632 44.7638C38.6707 45.21 39.0204 45.6265 39.4083 46.0072C39.6365 46.2345 39.8962 46.4488 40.2042 46.6646C40.261 46.6978 40.3178 46.7325 40.3735 46.7672C40.4614 46.8211 40.5483 46.8764 40.6413 46.9212L41.0819 47.0997C41.3029 47.1907 41.4683 47.3819 41.5266 47.6137C41.5849 47.8461 41.5296 48.0926 41.3775 48.2772C41.3272 48.3375 41.2348 48.416 41.169 48.4583C40.868 48.6439 40.6294 48.9295 40.4023 49.3536C40.2089 49.7188 40.0491 50.1398 39.9165 50.6393C39.6532 51.6865 39.5883 52.5919 39.721 53.3977C39.7828 53.7754 39.5527 54.1396 39.1858 54.2452C39.1165 54.2654 39.0462 54.2749 38.9773 54.2749" fill="black"/>
<path d="M59.9477 47.2075C60.1481 47.371 60.322 47.542 60.4718 47.7215C60.8094 48.1109 61.1028 48.6063 61.3581 49.224C61.3722 49.1581 61.3872 49.0928 61.4028 49.0269C61.551 48.4212 61.7263 47.8936 61.9394 47.4062C61.9464 47.3902 61.9535 47.3751 61.9621 47.3595C61.9987 47.2886 62.0314 47.2156 62.065 47.1427C62.0776 47.1155 62.0901 47.0879 62.1033 47.0603C61.5748 46.8032 61.1643 46.4099 60.8803 46.1377C60.8361 46.0915 60.7924 46.0451 60.7497 45.9994C60.7035 46.0884 60.6583 46.1719 60.6155 46.2494C60.4527 46.5321 60.2357 46.8781 59.9478 47.2076M61.8375 53.0785C61.5828 53.0785 61.3391 52.9492 61.1984 52.7244C60.7829 52.0595 60.5307 51.3503 60.287 50.6652C60.1841 50.3746 60.0805 50.0837 59.9645 49.7991C59.7731 49.3364 59.5631 48.9757 59.3239 48.6996C59.1034 48.435 58.7778 48.1865 58.3452 47.9497C58.108 47.8199 57.9583 47.5729 57.9528 47.3029C57.9477 47.0322 58.0875 46.7798 58.319 46.641C58.6647 46.4332 58.9771 46.0731 59.3038 45.5063C59.4912 45.1692 59.6259 44.8674 59.7128 44.5883C59.6686 44.5073 59.6263 44.4258 59.5872 44.3439C59.4063 43.9687 59.5631 43.5174 59.9378 43.3364C60.163 43.2272 60.4151 43.2403 60.6201 43.3494C60.6276 43.3499 60.6342 43.3504 60.6417 43.3515C61.0562 43.3872 61.3631 43.7528 61.327 44.1683C61.323 44.2157 61.3184 44.2629 61.3124 44.3097C61.4877 44.5607 61.6978 44.8127 61.945 45.0702C62.3067 45.4157 62.6821 45.7488 63.0694 45.8026L63.1668 45.7931C63.1738 45.7926 63.1809 45.7921 63.1874 45.7916H63.19C63.4487 45.7705 63.724 45.8822 63.8803 46.0949C64.0697 46.3519 64.0612 46.7367 63.8824 47.0012L63.6247 47.4117C63.5493 47.5224 63.4946 47.6431 63.4357 47.7708C63.3949 47.8593 63.3548 47.9474 63.3106 48.0334C63.1372 48.4347 62.992 48.8758 62.8679 49.3809C62.6554 50.2853 62.5609 51.2711 62.5906 52.3028C62.6001 52.6433 62.3811 52.9481 62.0554 53.0467C61.9835 53.0684 61.9097 53.079 61.8374 53.079" fill="black"/>
</svg>
