<svg width="100" height="100" viewBox="0 0 100 100" fill="none" xmlns="http://www.w3.org/2000/svg">
<path d="M46.7883 30.6619C46.7193 30.7021 46.6424 30.7323 46.5599 30.7489L45.8602 30.8917C45.4683 30.9686 44.9321 31.0738 44.2628 31.2826C42.2071 31.8615 40.1619 32.77 38.1656 33.9892C35.4414 35.6244 32.6962 37.9587 30.2215 40.7423C27.417 43.8588 24.8185 47.7835 22.7035 52.0952C20.2675 57.1023 18.6509 62.275 17.8999 67.4658C17.4779 70.4449 17.3964 73.3904 17.6585 76.2198C17.8526 77.9179 18.1157 79.3252 18.4849 80.6319C18.9235 82.1434 19.495 83.5649 20.183 84.8519C21.5683 87.4931 23.7014 89.8631 26.3537 91.7116C28.7947 93.4202 31.7362 94.7602 35.0965 95.6927C37.9731 96.5076 41.167 97.0387 44.8655 97.3173C48.1796 97.5467 51.5567 97.5492 54.8986 97.3259C58.6151 97.0533 61.8358 96.5231 64.7384 95.7053C68.1672 94.7572 71.1535 93.3926 73.6161 91.6483C76.2744 89.7852 78.4336 87.3327 79.8631 84.5537C80.5447 83.2213 81.101 81.7425 81.5154 80.1591C81.6904 79.5384 81.8067 78.9232 81.9293 78.2724L82.0092 77.852C82.0278 77.6976 82.0555 77.4954 82.0826 77.2937C82.1641 76.7017 82.2405 76.1429 82.2702 75.5809C82.504 72.7416 82.3547 69.7539 81.815 66.4237C81.3658 63.6402 80.6224 60.7711 79.6059 57.896C77.7564 52.6736 75.2139 47.8857 72.047 43.6662C69.1463 39.7967 65.7652 36.5671 62.2685 34.3258C60.7394 33.3324 59.053 32.4893 57.2518 31.8174C56.6085 31.5609 55.9636 31.3793 55.34 31.2038L54.8572 31.067C54.648 31.0187 54.4024 30.9695 54.16 30.9212L53.2054 30.7265L51.6321 30.5328L50.6422 30.4881C50.0976 30.4453 49.592 30.476 49.1036 30.5062L48.2792 30.5529C47.9312 30.5715 47.6016 30.5891 47.2908 30.6137L46.7883 30.6619ZM49.938 98.9997C48.2032 98.9997 46.4729 98.9404 44.7567 98.8222C40.9516 98.535 37.6601 97.9872 34.689 97.1458C31.1666 96.1675 28.0703 94.7556 25.4895 92.9483C22.6406 90.9635 20.344 88.408 18.8496 85.5585C18.1148 84.1833 17.5031 82.6643 17.0344 81.0472C16.6406 79.6545 16.363 78.1716 16.1578 76.375C15.8831 73.413 15.9676 70.3487 16.4067 67.2514C17.1797 61.9037 18.8421 56.5826 21.348 51.4331C23.5243 46.9958 26.2033 42.9519 29.097 39.7362C31.6687 36.843 34.5357 34.4082 37.3841 32.6985C39.137 31.6281 40.9332 30.7816 42.7344 30.1755C42.7595 29.8184 43.0366 29.5197 43.4048 29.4784L47.1601 29.1107C47.4946 29.084 47.837 29.0654 48.1982 29.0463L49.011 28.9995C49.5271 28.9688 50.1116 28.9331 50.7358 28.9824L51.7292 29.0267C51.7482 29.0271 51.7679 29.0292 51.787 29.0313L53.4187 29.2319C53.4384 29.2344 53.4579 29.2379 53.477 29.2419L54.4569 29.4411C54.7139 29.4929 54.975 29.5453 55.238 29.6066L55.749 29.751C56.4104 29.9376 57.0945 30.1298 57.7956 30.4093C59.6839 31.1135 61.4694 32.0068 63.087 33.0581C66.7296 35.393 70.2469 38.7489 73.2543 42.7606C76.5127 47.1024 79.1281 52.0256 81.0284 57.3924C82.0751 60.353 82.8412 63.3105 83.3049 66.182C83.8642 69.634 84.0181 72.742 83.7757 75.6824C83.7445 76.285 83.6594 76.9021 83.5779 77.4982C83.5508 77.6953 83.5236 77.8925 83.4985 78.0901L83.4119 78.5528C83.2882 79.2072 83.1605 79.8837 82.9709 80.5547C82.5328 82.2296 81.9373 83.8115 81.2054 85.2424C79.6632 88.2392 77.3399 90.8804 74.485 92.8817C71.8821 94.7247 68.7384 96.1647 65.1441 97.1581C62.1458 98.0031 58.8276 98.5508 55.0035 98.831C53.319 98.9436 51.6264 98.9995 49.938 98.9995" fill="black"/>
<path d="M82.472 78.5991C82.0948 78.5991 81.7693 78.3168 81.7236 77.9331L81.624 77.0931L81.4283 76.123L81.2493 75.5138C81.194 75.3051 81.1225 75.0988 81.0299 74.8791C80.609 73.7639 79.9811 72.6987 79.2025 71.7716C78.2635 70.6459 77.015 69.5912 75.5921 68.7175C74.0973 67.8086 72.3414 67.0149 70.3767 66.3589C68.5006 65.7418 66.3826 65.2252 64.0849 64.8233C60.0128 64.1227 55.2525 63.765 49.939 63.76C44.627 63.7651 39.8667 64.1227 35.7921 64.8238C33.4969 65.2252 31.3789 65.7417 29.4993 66.3599C27.5381 67.0148 25.7822 67.8085 24.2843 68.719C22.8639 69.5911 21.616 70.6459 20.6779 71.77C19.8983 72.6986 19.27 73.7639 18.8602 74.8523C18.7571 75.0988 18.6851 75.305 18.6364 75.4916L18.4026 76.3653L18.2552 77.0931L18.1556 77.9331C18.1068 78.347 17.7321 78.6463 17.3176 78.5935C16.9041 78.5452 16.6083 78.1694 16.6571 77.756L16.7602 76.8848C16.7627 76.8646 16.7662 76.844 16.7697 76.8239L16.9785 75.7923C16.9824 75.7712 16.988 75.7496 16.994 75.7289L17.1826 75.0886C17.2439 74.8507 17.3365 74.5837 17.4588 74.2934C17.924 73.056 18.6216 71.872 19.5205 70.8007C20.5612 69.5553 21.9369 68.3889 23.4976 67.4312C25.0946 66.4604 26.9536 65.6189 29.025 64.9274C30.9766 64.2861 33.1655 63.7509 35.5346 63.3369C39.6947 62.6212 44.5405 62.256 49.939 62.251C55.339 62.256 60.1848 62.6212 64.343 63.3364C66.7135 63.7509 68.9025 64.2861 70.8511 64.9264C72.926 65.6189 74.7844 66.4605 76.3785 67.4292C77.9427 68.3889 79.3179 69.5554 80.3601 70.8022C81.258 71.8722 81.955 73.0561 82.4313 74.3202C82.543 74.5837 82.6351 74.8508 82.7029 75.1104L82.885 75.729C82.891 75.7497 82.8966 75.7713 82.901 75.7924L83.1093 76.8241C83.1132 76.8442 83.1167 76.8648 83.1193 76.8849L83.2224 77.7561C83.2711 78.1695 82.9754 78.5452 82.5615 78.5936C82.5313 78.5976 82.5016 78.5992 82.4719 78.5992" fill="black"/>
<path d="M35.7891 34.0352C35.6623 34.0352 35.5341 34.0036 35.4165 33.9361L34.7298 33.5443C34.0814 33.1338 33.4528 32.653 32.8311 32.0971C31.9408 31.2537 31.1401 30.3447 30.4344 29.3805C29.5783 28.2051 28.782 26.8682 28.0668 25.4054C26.5629 22.3801 25.49 18.5618 24.9669 14.369C24.6853 11.8626 24.8074 9.7073 25.3391 7.77041C25.6836 6.58341 26.1941 5.51953 26.8591 4.59811C27.5779 3.61427 28.447 2.7939 29.444 2.15567C29.9877 1.78906 30.5894 1.53554 31.0505 1.3564C31.0691 1.3494 31.0877 1.34288 31.1064 1.33733C31.6712 1.16784 32.2703 1.02044 32.9388 1.00692C34.1202 0.940528 35.3737 1.35352 36.43 2.16932C38.0053 3.39917 39.2824 5.16259 40.3372 7.56278C41.0555 9.24218 41.6263 11.0852 42.1389 13.3692C42.4186 14.5996 42.6419 15.7831 42.8581 16.9269C42.9668 17.5023 43.0724 18.063 43.1815 18.6073C43.9727 22.4698 44.106 25.3066 44.115 26.654C44.1356 27.4628 44.0904 28.1409 44.0577 28.6368L44.0391 28.9325C44.0265 29.2081 44.0043 29.4381 43.9747 29.606L43.952 29.7765C43.8952 30.1895 43.5135 30.4757 43.102 30.4218C42.689 30.3655 42.4004 29.9847 42.4566 29.5723L42.4847 29.3701C42.4993 29.2847 42.5184 29.1428 42.5321 28.8546L42.5522 28.5367C42.5849 28.0448 42.6251 27.4317 42.6061 26.6782C42.5975 25.3719 42.4688 22.6463 41.7027 18.9071C41.592 18.3543 41.485 17.7874 41.3754 17.207C41.1616 16.0763 40.9408 14.9074 40.6666 13.7018C40.1747 11.5078 39.6305 9.74834 38.9529 8.16297C38.0044 6.00421 36.8751 4.4314 35.5051 3.36198C34.749 2.77795 33.8292 2.46918 32.9751 2.51493H32.9655C32.4822 2.51493 32.0124 2.64167 31.5683 2.77446C31.1845 2.9239 30.6971 3.13106 30.2731 3.41679C29.4301 3.95651 28.6771 4.66764 28.0801 5.48453C27.5192 6.2617 27.0846 7.17059 26.7914 8.18098C26.3141 9.91929 26.2064 11.8885 26.4655 14.1921C26.9664 18.209 27.989 21.8586 29.42 24.7383C30.099 26.1265 30.85 27.3875 31.6532 28.4916C32.3046 29.3809 33.0445 30.2213 33.8528 30.9869C34.5353 31.5965 35.1314 32.013 35.5081 32.253L36.1634 32.6256C36.5256 32.8318 36.6519 33.2926 36.4456 33.6547C36.3062 33.8992 36.0512 34.0354 35.7891 34.0354" fill="black"/>
<path d="M63.7693 34.0348C63.5072 34.0348 63.2523 33.8985 63.1129 33.654C62.9067 33.2919 63.0328 32.8311 63.395 32.6249L64.0805 32.2336C64.4271 32.0123 65.0231 31.5958 65.7223 30.9711C66.5139 30.2206 67.2539 29.3802 67.9063 28.4894C68.7085 27.3869 69.4595 26.1259 70.1365 24.7417C71.5695 21.8581 72.5921 18.2084 73.0945 14.182C73.352 11.888 73.2444 9.91871 72.7641 8.1699C72.4739 7.17001 72.0393 6.26113 71.4759 5.48046C70.8814 4.6672 70.1284 3.95596 69.301 3.42625C68.8618 3.1305 68.374 2.92322 67.9903 2.7739C67.5431 2.64014 67.0754 2.50481 66.6292 2.51531C65.7319 2.47101 64.8089 2.77692 64.0503 3.36336C62.6832 4.43073 61.5541 6.00354 60.6024 8.16931C59.928 9.74767 59.3837 11.5071 58.8923 13.6986C58.6176 14.9067 58.3968 16.0757 58.1831 17.2063C58.0734 17.7867 57.9663 18.3536 57.8562 18.9034C57.0896 22.6456 56.9608 25.3712 56.9524 26.6634C56.9333 27.4309 56.9735 28.0441 57.0062 28.536L57.0259 28.8448C57.04 29.1422 57.0591 29.2839 57.0696 29.3423L57.1018 29.5717C57.1582 29.9841 56.8694 30.3649 56.4565 30.4213C56.0445 30.4741 55.6632 30.1889 55.6064 29.7759L55.5792 29.5788C55.5541 29.4374 55.5319 29.2076 55.5189 28.9229L55.5008 28.6362C55.468 28.1403 55.4228 27.4623 55.4439 26.6393C55.4525 25.3059 55.5857 22.4691 56.3774 18.6036C56.486 18.0625 56.5917 17.5016 56.7003 16.9262C56.9166 15.7824 57.1399 14.5989 57.4201 13.366C57.9322 11.0845 58.5031 9.24149 59.2178 7.56909C60.2762 5.16177 61.5532 3.39837 63.1251 2.17105C64.1848 1.35272 65.4398 0.945292 66.6655 1.0071H66.6937C67.2987 1.0071 67.8958 1.16958 68.4521 1.33653C68.4707 1.34209 68.4893 1.3486 68.508 1.3556C68.9693 1.53462 69.5708 1.78813 70.1301 2.16537C71.1114 2.79309 71.9805 3.61347 72.6969 4.5938C73.3643 5.51873 73.8748 6.58261 74.2163 7.7596C74.751 9.70663 74.8733 11.8619 74.5931 14.3593C74.0684 18.5611 72.9956 22.3794 71.4897 25.4093C70.7765 26.8674 69.9803 28.2043 69.1246 29.3783C68.4185 30.344 67.6177 31.2529 66.7445 32.0813C66.1057 32.6522 65.477 33.1331 64.8593 33.5249L64.142 33.9353C64.0243 34.0027 63.8955 34.0344 63.7693 34.0344" fill="black"/>
<path d="M44.0034 51.4875C42.9134 51.4875 41.7017 51.3145 40.5187 51.1459L40.3728 51.1253C40.1521 51.0977 39.9192 51.07 39.6873 51.0423C39.0651 50.9689 38.4214 50.8929 37.8148 50.7822L37.2343 50.6842C37.2167 50.6812 37.1991 50.6777 37.1815 50.6736L36.6241 50.5383C36.2947 50.4628 35.9019 50.3662 35.5393 50.2404C34.3195 49.8632 33.5057 49.5775 33.472 49.5659C33.0787 49.4275 32.8719 48.9969 33.0102 48.6036C33.1481 48.2108 33.5792 48.0045 33.9725 48.1424C33.9806 48.1449 34.7954 48.4312 36.0096 48.8068C36.3295 48.9175 36.673 49.0014 36.9707 49.0694L37.5109 49.2001L38.0762 49.2957C38.6456 49.3999 39.2376 49.4698 39.8643 49.5437C40.1006 49.5713 40.3371 49.5996 40.574 49.6297L40.7314 49.6524C42.3172 49.8788 43.9575 50.1132 45.0792 49.8888C45.1939 49.8656 45.2744 49.754 45.296 49.7198C45.3689 49.6056 45.4158 49.4728 45.466 49.3325L45.6707 48.7039C45.7979 48.3075 46.224 48.0907 46.6198 48.217C47.0167 48.3447 47.2345 48.7698 47.1066 49.1667L46.8873 49.8381C46.8223 50.0201 46.7339 50.2701 46.5674 50.5332C46.2858 50.9703 45.8521 51.2726 45.3753 51.3692C44.9508 51.4532 44.489 51.4873 44.0031 51.4873" fill="black"/>
<path d="M56.119 47.8621C56.1059 47.8008 56.0867 47.6694 56.1004 47.4783C56.1099 47.3214 56.1436 47.1172 56.199 46.8818C56.3077 46.4145 56.5059 45.7923 56.7564 45.1324C57.284 43.7864 58.6602 41.9203 60.8115 41.0612C61.8566 40.6654 62.9225 40.4984 63.9053 40.5698C65.0008 40.6311 65.9263 41.0305 66.5253 41.3257C67.2954 41.7387 67.7592 42.2703 68.0791 42.6883L68.4784 43.2255C68.7273 43.5595 68.6579 44.0329 68.324 44.2813C67.9895 44.5297 67.5172 44.4608 67.2682 44.1264L66.8743 43.5973C66.6389 43.2895 66.325 42.9304 65.8347 42.6673C65.3774 42.443 64.6417 42.1227 63.8071 42.0758C63.0392 42.0185 62.1749 42.1589 61.3581 42.4677C59.7762 43.0989 58.6113 44.5349 58.1637 45.6757C57.9394 46.2667 57.7628 46.8195 57.6687 47.2249C57.6174 47.4406 57.6079 47.5517 57.6063 47.5805C57.6033 47.5709 57.5958 47.5508 57.5958 47.5508L56.119 47.8621Z" fill="black"/>
<path d="M42.5453 54.7558C41.8849 54.7387 41.2165 54.4726 40.642 54.0064C40.1455 53.5844 39.79 53.0634 39.6289 52.5272C39.4288 51.8974 39.5605 51.3618 39.6575 51.0992C39.7662 50.7844 39.9126 50.5987 39.9698 50.5344L41.0965 51.5389C41.0965 51.5389 41.1086 51.5283 41.1251 51.5031C41.1251 51.5036 41.1024 51.5378 41.0778 51.6078C41.0541 51.6726 40.9983 51.8557 41.0703 52.0816C41.1497 52.3457 41.3489 52.6274 41.6054 52.8451C41.7765 52.9844 42.1471 53.2365 42.5631 53.2474L42.7999 53.2224C42.8331 53.2154 42.8874 53.2052 42.9413 53.1952C42.9845 53.1877 43.0278 53.1806 43.0701 53.1706L43.1379 53.1404C43.2823 53.0765 43.4191 53.0167 43.481 52.9588C43.5162 52.9256 43.5544 52.8964 43.5952 52.8708C43.6409 52.8422 43.7094 52.7576 43.7753 52.6762C43.8085 52.6354 43.8417 52.5952 43.8749 52.5565C43.903 52.5061 43.9322 52.4579 43.9604 52.4096C44.0086 52.3286 44.063 52.2371 44.0776 52.1923C44.0841 52.1711 44.0917 52.15 44.1007 52.1294C44.2069 51.8764 44.2481 51.6425 44.2844 51.4353L44.2914 51.3976L44.313 51.0726C44.3406 50.6571 44.6923 50.3453 45.1157 50.3695C45.5312 50.3976 45.8461 50.7567 45.8184 51.1727L45.7943 51.5384C45.7928 51.5671 45.7887 51.5962 45.7838 51.6244L45.7707 51.6978C45.729 51.9347 45.6667 52.2888 45.5037 52.6862C45.4373 52.8794 45.3423 53.0389 45.2577 53.1807C45.2261 53.234 45.1938 53.2878 45.1636 53.3446C45.133 53.4036 45.0942 53.4573 45.0495 53.5061C45.0142 53.5444 44.9805 53.5861 44.9464 53.6283C44.8331 53.7671 44.6822 53.9533 44.46 54.1077C44.2225 54.3119 43.96 54.4276 43.7457 54.5216L43.6385 54.5694C43.6093 54.5825 43.5791 54.5941 43.5485 54.6031C43.4389 54.6373 43.3251 54.6595 43.2105 54.6806L42.8825 54.743C42.8372 54.7511 42.791 54.7556 42.7451 54.7556L42.545 54.756L42.5453 54.7558Z" fill="black"/>
<path d="M64.2613 50.2955C64.4162 50.3765 64.6964 50.4826 65.05 50.3961C65.4242 50.3076 65.8975 50.048 66.1158 49.5807C66.1232 49.5651 66.1313 49.549 66.1399 49.5334C66.2189 49.3911 66.2435 49.1722 66.2093 48.9273L66.1485 48.712C66.1027 48.6321 66.0765 48.5858 66.0534 48.5375C66.0157 48.4525 65.9331 48.3585 65.8456 48.2594C65.8426 48.2554 65.8073 48.2151 65.8038 48.2111C65.6464 48.0245 65.4437 47.8967 65.2601 47.8696C65.1022 47.8484 64.9096 47.9078 64.748 48.0341C64.557 48.1769 64.4 48.3726 64.2682 48.6261C64.2245 48.712 64.1672 48.8318 64.143 48.9274C64.13 48.9938 64.1184 49.1029 64.1149 49.2338C64.1074 49.5974 64.1351 49.8736 64.1748 50.0617C64.2311 50.0742 64.2874 50.0933 64.3428 50.1185L64.2613 50.2955ZM64.7834 51.9382C64.126 51.9382 63.6346 51.6861 63.4228 51.5539C63.1382 51.3985 62.959 51.2104 62.8756 51.1163C62.6513 50.9051 62.5829 50.5836 62.685 50.306C62.6247 49.9906 62.598 49.6189 62.6065 49.1968C62.6126 48.9695 62.6347 48.7728 62.6729 48.5893C62.7393 48.3212 62.8374 48.1104 62.926 47.9365C63.1679 47.4722 63.4712 47.1045 63.8318 46.8354C64.3047 46.4647 64.9113 46.2947 65.481 46.3767C66.0349 46.4591 66.5594 46.765 66.9584 47.2398C67.1228 47.4264 67.3003 47.6291 67.4236 47.9047C67.484 48.0052 67.5548 48.1266 67.5972 48.2895L67.6747 48.5647C67.6822 48.5908 67.6877 48.618 67.6923 48.6457C67.7903 49.2412 67.7144 49.7925 67.472 50.2426C67.0892 51.0424 66.3166 51.6474 65.4008 51.8637C65.183 51.9166 64.9757 51.9382 64.7837 51.9382" fill="black"/>
<path d="M51.3576 59.3821C51.1705 59.0677 51.1856 58.5064 51.5759 58.0417C51.7927 57.7535 52.1955 57.4154 52.783 57.0377C53.2805 56.7183 53.8715 56.3944 54.539 56.0745C54.9107 55.8974 55.2467 55.7485 55.5681 55.6197C55.9625 55.4582 56.398 55.3044 56.8804 55.2803C58.3411 55.1812 59.9667 55.6253 61.2252 56.4593C61.7865 56.829 62.1713 57.2379 62.3947 57.5161C62.6165 57.8058 62.7246 58.0096 62.7608 58.085L62.0839 58.417L62.2544 59.1529C61.9114 59.2339 61.5603 59.0633 61.4059 58.7485C61.4054 58.7469 61.3476 58.6308 61.2072 58.4467C61.0628 58.2676 60.7938 57.9819 60.3938 57.7184C59.6252 57.2093 58.3196 56.6983 56.9675 56.7868C56.6864 56.8003 56.3911 56.9136 56.1356 57.0182C55.8061 57.1505 55.4913 57.2929 55.1895 57.4368C54.588 57.7244 54.0376 58.0257 53.5991 58.3069C53.0352 58.6695 52.8286 58.8858 52.755 58.9824C52.7766 58.9432 52.7465 58.7375 52.6232 58.5629L52.0066 58.997L51.3578 59.3824L51.3576 59.3821Z" fill="black"/>
</svg>
