<svg width="100" height="100" viewBox="0 0 100 100" fill="none" xmlns="http://www.w3.org/2000/svg">
<path d="M43.789 30.6617C43.7196 30.7025 43.6421 30.7327 43.5587 30.7492L42.8636 30.8906C42.4712 30.9675 41.9341 31.0737 41.2636 31.2824C39.2079 31.8614 37.1627 32.7698 35.1658 33.989C32.4411 35.6252 29.6959 37.9591 27.2217 40.7417C24.4171 43.8587 21.8187 47.784 19.7036 52.0951C17.2672 57.1027 15.651 62.275 14.9001 67.4658C14.478 70.4449 14.3966 73.3904 14.6586 76.2198C14.8527 77.9179 15.1158 79.3252 15.4851 80.632C15.9231 82.1424 16.4945 83.5638 17.1832 84.852C18.5684 87.4931 20.7016 89.8633 23.3538 91.7117C25.7949 93.4203 28.7362 94.7603 32.0967 95.6928C34.9733 96.5076 38.1672 97.0388 41.8657 97.3174C45.1794 97.5463 48.5564 97.5488 51.8987 97.326C55.6158 97.0534 58.8359 96.5232 61.7387 95.7054C65.168 94.7572 68.1538 93.3927 70.6164 91.6483C73.2747 89.7847 75.434 87.3322 76.8635 84.5537C77.5446 83.2218 78.1013 81.743 78.5159 80.1591C78.6909 79.5389 78.8066 78.9243 78.9293 78.2734L79.0098 77.8519C79.0284 77.6975 79.0556 77.4953 79.0837 77.2935C79.1647 76.7016 79.2411 76.1428 79.2708 75.5808C79.5048 72.7419 79.3553 69.7542 78.8161 66.4235C78.3664 63.6405 77.6231 60.7714 76.606 57.8958C74.757 52.6733 72.214 47.8854 69.0476 43.6659C66.1464 39.7965 62.7653 36.5668 59.2686 34.3259C57.739 33.3316 56.0525 32.488 54.2528 31.8176C53.61 31.5606 52.9662 31.3795 52.3434 31.2045L51.8576 31.0666C51.6468 31.0183 51.3988 30.9686 51.1553 30.9197L50.012 30.7024L48.6324 30.5324L47.6425 30.4881C47.0972 30.4459 46.5907 30.4765 46.1008 30.5058L45.2658 30.5536C44.9228 30.5721 44.5974 30.5893 44.2906 30.6134L43.789 30.6617ZM46.9382 98.9998C45.2034 98.9998 43.4732 98.9404 41.757 98.8223C37.9519 98.5351 34.6603 97.9873 31.6892 97.1459C28.1668 96.1676 25.0704 94.7557 22.4896 92.9484C19.6407 90.9636 17.3441 88.4079 15.8498 85.5585C15.1143 84.1824 14.5028 82.6628 14.0345 81.0472C13.6412 79.6545 13.3631 78.1716 13.1578 76.375C12.8831 73.413 12.9676 70.3487 13.4067 67.2514C14.1798 61.9041 15.8421 56.5826 18.348 51.4329C20.5244 46.9956 23.2033 42.9516 26.097 39.7355C28.6683 36.8439 31.5348 34.4089 34.3842 32.6982C36.1376 31.6278 37.9333 30.7813 39.7345 30.1757C39.7591 29.8181 40.0368 29.5188 40.4049 29.4781L44.1592 29.1104C44.4912 29.0842 44.8287 29.0656 45.1844 29.0465L46.0092 28.9997C46.5257 28.9675 47.1107 28.9318 47.7359 28.9821L48.7293 29.0264C48.749 29.0269 48.7681 29.0284 48.7876 29.031L50.4198 29.2322C50.4395 29.2347 50.4581 29.2377 50.4772 29.2417L51.4524 29.4404C51.711 29.4922 51.9736 29.5451 52.2381 29.6069L52.7516 29.7518C53.4125 29.9379 54.0955 30.1295 54.7957 30.4101C56.6828 31.1128 58.4685 32.0061 60.0866 33.0578C63.7292 35.3922 67.2465 38.7482 70.2544 42.7604C73.5128 47.1022 76.1277 52.0249 78.0281 57.3922C79.0753 60.3533 79.8413 63.3108 80.305 66.1818C80.8643 69.6343 81.0187 72.7423 80.7758 75.6822C80.7447 76.2848 80.6602 76.9019 80.5782 77.498C80.551 77.6952 80.5239 77.8924 80.4988 78.09L80.4122 78.5534C80.2885 79.2078 80.1612 79.8838 79.9716 80.5547C79.5324 82.2301 78.9374 83.812 78.2056 85.2425C76.664 88.2393 74.3402 90.8804 71.4852 92.8818C68.8828 94.7248 65.7391 96.1643 62.1438 97.1582C59.1461 98.0032 55.8283 98.5509 52.0036 98.8311C50.3192 98.9437 48.6266 98.9996 46.9381 98.9996" fill="black"/>
<path d="M79.4723 78.5993C79.095 78.5993 78.7696 78.317 78.7243 77.9333L78.6242 77.0933L78.3747 75.942L78.2495 75.5151C78.1947 75.3048 78.1248 75.1046 78.0302 74.8792C77.6092 73.7636 76.9809 72.6983 76.2034 71.7718C75.2638 70.6461 74.0154 69.5908 72.5925 68.7176C71.0977 67.8088 69.3417 67.0151 67.3771 66.3591C65.4999 65.742 63.3823 65.2253 61.0852 64.8234C57.0131 64.1228 52.2527 63.7651 46.9393 63.7602C41.6273 63.7652 36.8669 64.1228 32.7923 64.8239C30.4971 65.2253 28.3791 65.7419 26.4994 66.36C24.5383 67.0149 22.7823 67.8086 21.2845 68.7191C19.8645 69.5908 18.6161 70.646 17.6781 71.7702C16.8985 72.6987 16.2701 73.7641 15.8603 74.8524C15.7552 75.1029 15.6858 75.3037 15.6365 75.4918L15.4026 76.3654L15.2552 77.0932L15.1556 77.9331C15.1068 78.3476 14.73 78.6454 14.3176 78.5936C13.9041 78.5453 13.6083 78.1695 13.6571 77.7561L13.7602 76.8848C13.7627 76.8647 13.7662 76.844 13.7697 76.824L13.9785 75.7923C13.9824 75.7712 13.988 75.7496 13.994 75.729L14.1826 75.0887C14.2439 74.8523 14.336 74.5852 14.4582 74.294C14.9239 73.0562 15.6215 71.8722 16.5204 70.8007C17.5616 69.5548 18.9368 68.3889 20.4975 67.4313C22.0945 66.4605 23.9535 65.619 26.0249 64.9274C27.9765 64.2861 30.1655 63.7509 32.5345 63.3369C36.6947 62.6212 41.5405 62.256 46.939 62.251C52.339 62.256 57.1844 62.6212 61.343 63.3365C63.7131 63.7509 65.9022 64.2861 67.8512 64.9264C69.9261 65.619 71.7851 66.4605 73.3791 67.4292C74.9424 68.3889 76.3181 69.5548 77.3602 70.8023C78.2575 71.8716 78.9552 73.0557 79.4315 74.3202C79.5441 74.5863 79.6362 74.8544 79.7036 75.1109L79.8851 75.7291C79.8911 75.7497 79.8967 75.7704 79.9007 75.7915L80.1049 76.8005C80.1089 76.8206 80.1165 76.8648 80.1191 76.885L80.2222 77.7562C80.2714 78.1696 79.9756 78.5453 79.5617 78.5937C79.5315 78.5977 79.502 78.5993 79.4723 78.5993Z" fill="black"/>
<path d="M32.7895 34.0354C32.6628 34.0354 32.5339 34.0031 32.4162 33.9358L31.7302 33.5444C31.0809 33.1324 30.4527 32.6516 29.831 32.0968C28.9417 31.2538 28.1409 30.3448 27.4348 29.3806C26.5786 28.2041 25.7824 26.8672 25.0673 25.4051C23.5634 22.3802 22.4905 18.5619 21.9674 14.3686C21.6858 11.8621 21.8079 9.70686 22.3396 7.77045C22.6846 6.58236 23.1946 5.51861 23.8596 4.59766C24.5784 3.61382 25.4475 2.79343 26.445 2.15569C26.9887 1.78798 27.5903 1.53448 28.051 1.35594C28.0696 1.34894 28.0882 1.34242 28.1074 1.33687C28.6733 1.16739 29.2623 1.00586 29.9398 1.00646C31.1167 0.942604 32.3736 1.35353 33.431 2.16933C35.0059 3.39859 36.2829 5.16152 37.3376 7.56234C38.0554 9.24174 38.6268 11.0842 39.1393 13.3688C39.419 14.5991 39.6423 15.7822 39.8585 16.9264C39.9672 17.5019 40.0728 18.0628 40.182 18.6069C40.9731 22.4694 41.1064 25.3067 41.1155 26.6537C41.1361 27.4625 41.0908 28.1405 41.0581 28.6359L41.0395 28.9322C41.027 29.2084 41.0047 29.4382 40.9752 29.6061L40.952 29.7766C40.8951 30.1896 40.5149 30.4782 40.1019 30.421C39.6894 30.3646 39.4008 29.9839 39.457 29.5714L39.4852 29.3697C39.4998 29.2837 39.5189 29.1428 39.5325 28.8541L39.5527 28.5362C39.5854 28.0438 39.6256 27.4312 39.6065 26.6777C39.5979 25.3714 39.4691 22.6457 38.7032 18.9066C38.5925 18.3538 38.4854 17.7874 38.3758 17.2065C38.162 16.0757 37.9412 14.9064 37.6671 13.7011C37.1751 11.5066 36.6309 9.74718 35.9534 8.16229C35.0043 6.00352 33.8756 4.4307 32.5055 3.36128C31.75 2.77725 30.8275 2.47003 29.976 2.51421H29.9655C29.4831 2.51421 29.0133 2.64097 28.5687 2.77376C28.1854 2.92308 27.698 3.12987 27.2735 3.41609C26.4305 3.95582 25.6775 4.66695 25.0804 5.48432C24.5196 6.26089 24.085 7.16928 23.7918 8.18029C23.3145 9.91812 23.2068 11.8879 23.4658 14.191C23.9673 18.2088 24.9894 21.859 26.4204 24.7377C27.0994 26.1254 27.8504 27.3869 28.6541 28.491C29.3055 29.3808 30.0454 30.2212 30.8527 30.9863C31.5348 31.5949 32.1314 32.0124 32.5091 32.2528L33.1644 32.6255C33.5266 32.8323 33.6524 33.2929 33.4456 33.6546C33.3063 33.8986 33.0517 34.0354 32.7898 34.0354" fill="black"/>
<path d="M60.7696 34.0356C60.5075 34.0356 60.2535 33.8989 60.1137 33.6549C59.907 33.2932 60.0332 32.8326 60.3948 32.6258L61.0815 32.2339C61.4285 32.0122 62.0256 31.5946 62.7232 30.9715C63.5144 30.2205 64.2554 29.3806 64.9072 28.4898C65.7084 27.3878 66.4599 26.1263 67.137 24.742C68.571 21.8585 69.5926 18.2082 70.095 14.1823C70.3525 11.8882 70.2449 9.9185 69.7651 8.17017C69.4744 7.16918 69.0392 6.2608 68.4765 5.48122C67.8819 4.66735 67.1289 3.95619 66.3015 3.42697C65.8614 3.13025 65.374 2.92347 64.9908 2.77414C64.5486 2.64184 64.0824 2.51557 63.6453 2.51557H63.6302C62.7359 2.46825 61.8099 2.77764 61.0513 3.36408C59.6842 4.43085 58.5555 6.0038 57.6028 8.16958C56.9282 9.74746 56.3845 11.5069 55.8932 13.6989C55.6181 14.9065 55.3973 16.076 55.184 17.2067C55.0738 17.7875 54.9672 18.3539 54.8571 18.9037C54.0905 22.6459 53.9617 25.3716 53.9533 26.6632C53.9337 27.4312 53.9744 28.044 54.0071 28.5364L54.0267 28.8452C54.0402 29.143 54.0594 29.2837 54.0699 29.3422L54.1021 29.5715C54.159 29.984 53.8702 30.3647 53.4573 30.421C53.0418 30.4774 52.664 30.1891 52.6072 29.7767L52.58 29.579C52.5544 29.4381 52.5327 29.2083 52.5197 28.9232L52.5011 28.636C52.4684 28.1405 52.4236 27.4625 52.4442 26.6391C52.4533 25.3067 52.5861 22.4693 53.3777 18.6039C53.4864 18.0628 53.5925 17.5019 53.7011 16.9265C53.9168 15.7822 54.1408 14.5992 54.4208 13.3669C54.9329 11.0844 55.5038 9.24189 56.2185 7.56949C57.2768 5.16167 58.5539 3.39873 60.1258 2.172C61.1846 1.35367 62.4375 0.935629 63.6663 1.00806C64.2865 1.00154 64.8876 1.16752 65.4524 1.33701C65.471 1.34256 65.4896 1.34909 65.5082 1.35609C65.9689 1.53463 66.57 1.78814 67.1303 2.16586C68.1117 2.7931 68.9803 3.61348 69.6971 4.59382C70.3641 5.51779 70.8751 6.58166 71.2172 7.75961C71.7519 9.70713 71.8741 11.8624 71.5935 14.3598C71.0693 18.5617 69.997 22.3793 68.4906 25.4093C67.7769 26.868 66.9807 28.2049 66.1255 29.3795C65.4193 30.3447 64.6186 31.2531 63.7448 32.0815C63.1076 32.6514 62.4794 33.1322 61.8607 33.5261L61.1434 33.936C61.0252 34.0034 60.8968 34.0356 60.7696 34.0356Z" fill="black"/>
<path d="M34.3847 49.1057C34.3626 49.1048 34.341 49.1053 34.3188 49.1037C33.095 49.0111 32.1705 48.329 31.83 48.0399C31.6037 47.8302 31.4145 47.6325 31.2264 47.4117C31.0709 47.2306 30.991 47.0939 30.9704 47.0561C30.7702 46.6905 30.904 46.2322 31.2696 46.0316C31.6302 45.8334 32.0829 45.9622 32.2871 46.3183C32.2983 46.3364 32.3259 46.3761 32.3726 46.4304C32.5245 46.6085 32.6744 46.7659 32.8323 46.9128C32.9822 47.0391 33.613 47.527 34.4051 47.5969C35.1726 47.5888 35.8602 47.1412 36.0539 47.0029C36.2349 46.8777 36.3672 46.7454 36.4743 46.6362L36.6057 46.4531C36.8476 46.1142 37.3184 46.0357 37.6584 46.2776C37.9974 46.5195 38.0759 46.9908 37.8335 47.3304L37.667 47.5627C37.6443 47.5939 37.6197 47.6236 37.5925 47.6507C37.4321 47.8153 37.2223 48.0296 36.9211 48.2378C36.5605 48.4953 35.5746 49.106 34.3845 49.106" fill="black"/>
<path d="M59.2133 49.1057C59.1902 49.1048 59.1696 49.1053 59.1474 49.1037C57.9231 49.0111 56.9992 48.329 56.6586 48.0399C56.4323 47.8302 56.2436 47.6325 56.055 47.4117C55.8996 47.2306 55.8196 47.0939 55.799 47.0561C55.5988 46.6905 55.7326 46.2322 56.0982 46.0316C56.4588 45.8334 56.9121 45.9622 57.1153 46.3183C57.1269 46.3364 57.1545 46.3761 57.2012 46.4304C57.3537 46.6085 57.5035 46.7659 57.6609 46.9123C57.8113 47.0391 58.4416 47.527 59.2337 47.5969C60.0013 47.5888 60.6889 47.1412 60.8825 47.0029C61.0641 46.8777 61.1918 46.7498 61.3029 46.6356L61.4353 46.452C61.6777 46.1131 62.15 46.0356 62.488 46.2784C62.827 46.5208 62.9045 46.9927 62.661 47.3312L62.496 47.5615C62.4733 47.5938 62.4482 47.6235 62.4205 47.6511C62.2581 47.8176 62.0489 48.0309 61.7501 48.2376C61.3895 48.495 60.4036 49.1057 59.213 49.1057" fill="black"/>
<path d="M47.0762 55.9931L47.218 56.394C47.2753 56.567 47.3206 56.6958 47.3961 56.812C47.4121 56.8367 47.4267 56.8624 47.4398 56.8885C47.7787 57.57 48.6233 58.4945 49.9753 59.0437C50.6829 59.3184 51.4701 59.4864 52.3037 59.5377C53.1758 59.5769 54.0822 59.4542 54.9167 59.1781C55.7889 58.8934 56.5977 58.3884 57.2591 57.7174C57.5563 57.4347 57.8194 57.0867 58.1016 56.6059C58.2701 56.2567 58.4612 55.8066 58.4909 55.3645C58.6559 53.5644 57.4095 51.6666 55.7712 51.2024C55.0122 50.9705 54.1662 51.0162 53.373 51.3281C52.5542 51.643 51.8701 52.1325 51.3087 52.5701C50.8902 52.9035 50.5492 53.3039 50.2193 53.6912C50.1016 53.829 49.9869 53.9632 49.8732 54.09C49.3526 54.6915 48.9165 55.1086 48.5095 55.3928C47.9582 55.7977 47.4321 55.9174 47.1686 55.9511C47.1345 55.9566 47.1017 55.9617 47.07 55.9646C47.0721 55.9741 47.074 55.9832 47.076 55.9933M52.6239 61.0539C52.4897 61.0539 52.3553 61.0509 52.2216 61.0444C51.2222 60.983 50.2826 60.7823 49.4179 60.4468C47.9431 59.8467 46.7134 58.786 46.1078 57.5984C45.9488 57.3449 45.8633 57.1055 45.7899 56.8822L45.6385 56.4546C45.6295 56.4279 45.6214 56.4012 45.6149 56.3736C45.5445 56.0667 45.5283 55.8977 45.5283 55.8977C45.4891 55.4843 45.7914 55.1136 46.2043 55.0723C46.3819 55.0562 46.5498 55.0999 46.6882 55.1874L46.8502 54.4773C46.8502 54.4773 46.8351 54.4717 46.8049 54.4692C46.8059 54.4692 46.8567 54.4736 46.9518 54.4576C47.071 54.442 47.327 54.3891 47.6308 54.1658C47.9433 53.948 48.3018 53.5994 48.7414 53.0919C48.8556 52.9647 48.9618 52.84 49.0704 52.7121C49.4295 52.2912 49.836 51.8133 50.3751 51.3848C50.9917 50.9039 51.8221 50.3074 52.8261 49.9211C53.9297 49.4885 55.1288 49.4282 56.1971 49.7546C58.5144 50.4115 60.224 52.9838 59.9951 55.4831C59.9489 56.1788 59.6773 56.816 59.4459 57.2913C59.4378 57.3084 59.4287 57.325 59.4197 57.3416C59.057 57.9623 58.7065 58.4241 58.3146 58.7942C57.5038 59.6181 56.4853 60.2528 55.3877 60.6115C54.5085 60.9022 53.5603 61.0537 52.6238 61.0537" fill="black"/>
<path d="M56.3545 56.8462L55.7761 56.3991L55.004 56.5586C54.9587 56.3362 55.0416 56.0687 55.1846 55.8926C55.2178 55.8524 55.267 55.792 55.3088 55.6985C55.3158 55.6829 55.3234 55.6673 55.3315 55.6522C55.3828 55.5562 55.432 55.3293 55.4225 55.0542C55.3712 54.7107 55.2842 54.5256 55.244 54.4748C55.2143 54.4381 55.1887 54.3988 55.1664 54.3571C55.1553 54.3425 55.1372 54.3285 55.1232 54.3148C55.1182 54.3104 55.0784 54.2705 55.074 54.2656L54.9869 54.1785C54.6937 53.8828 54.6952 53.4055 54.9909 53.1116C55.2867 52.8184 55.7645 52.8194 56.0578 53.1156L56.1484 53.2066C56.2409 53.2972 56.3626 53.4158 56.4662 53.5899C56.7484 53.9783 56.8696 54.5023 56.9224 54.8816C56.9254 54.9037 56.9275 54.9259 56.9289 54.948C56.954 55.4685 56.8625 55.9731 56.6764 56.3362C56.5547 56.6004 56.4154 56.7718 56.3545 56.8462Z" fill="black"/>
<path d="M70.6841 38.2883C70.5559 38.2883 70.4286 38.2576 70.3175 38.1947C70.1218 38.0846 69.986 37.8854 69.9438 37.6671L69.9191 37.5408C69.9076 37.4709 69.8971 37.4196 69.8864 37.3688C69.8572 37.2309 69.8311 37.0927 69.8191 36.9523C69.7401 36.2809 69.7527 35.5947 69.7657 34.9308C69.7713 34.6522 69.7763 34.379 69.7743 34.1109C69.4453 34.3644 69.1023 34.6223 68.6964 34.8231C68.629 34.8563 68.5576 34.8795 68.4842 34.8915C68.1146 34.9499 67.7227 34.723 67.6074 34.3694C67.4918 34.0159 67.6668 33.6124 67.9982 33.4445C68.0646 33.4108 68.134 33.3877 68.2029 33.3751C68.4337 33.2383 68.6616 33.0633 68.9001 32.8797C69.2757 32.5909 69.6646 32.2922 70.1349 32.0855C70.3496 31.9905 70.5966 32.0019 70.8023 32.1152C71.008 32.2284 71.1494 32.4305 71.1846 32.663C71.3028 33.4461 71.2882 34.2156 71.2747 34.9596C71.2656 35.4264 71.2571 35.874 71.2802 36.3121L71.5036 36.1793C71.8863 35.949 72.2796 35.7282 72.6724 35.5073C72.8832 35.3891 73.0934 35.2714 73.3027 35.1512C73.6649 34.9444 74.1256 35.0692 74.3328 35.4303C74.5396 35.792 74.4148 36.2532 74.0531 36.4604C73.8398 36.5827 73.6255 36.7028 73.4107 36.823C73.031 37.0363 72.6512 37.249 72.2786 37.4739L71.1146 38.166C71.1081 38.17 71.1016 38.1735 71.095 38.1776C70.9718 38.25 70.8274 38.2883 70.6841 38.2883Z" fill="black"/>
<path d="M74.8002 33.1091C74.5964 33.1091 74.4199 33.0381 74.2705 32.8983C74.1613 32.7962 73.9345 32.5201 74.0481 32.0639L74.1456 31.0464C74.1598 30.8417 74.1628 30.6134 74.1668 30.384C74.1693 30.2447 74.1718 30.1059 74.1763 29.9666C74.1909 29.6432 74.1788 29.3254 74.1658 28.9888L74.1623 28.8922C74.1577 28.7776 74.1542 28.6589 74.1507 28.5407C74.1442 28.3279 74.1391 28.1177 74.12 27.913L73.857 28.0644C73.5422 28.2454 73.1915 28.4467 73.0382 28.5456C73.0101 28.5798 72.9783 28.6116 72.9437 28.6408C72.6233 28.9084 72.1484 28.8662 71.8804 28.5477C71.737 28.3762 71.6747 28.1413 71.7134 27.9214C71.7864 27.5131 71.9619 27.4119 73.1063 26.7555L74.3738 26.0252C74.4241 25.996 74.5026 25.9598 74.5589 25.9428C74.7746 25.8779 75.0125 25.9136 75.2007 26.0424C75.3888 26.1706 75.5085 26.3769 75.5271 26.6037L75.6146 27.6851C75.6428 27.9562 75.6513 28.2248 75.6594 28.4969L75.674 28.9315C75.6875 29.2846 75.7012 29.6492 75.684 30.026C75.6801 30.1472 75.678 30.2785 75.6755 30.4098C75.671 30.6647 75.6669 30.9188 75.6498 31.1693L75.6397 31.2759C75.7378 31.2457 75.8329 31.2176 75.9249 31.1904L76.2125 31.1039C76.4077 31.041 76.6028 30.9983 76.785 30.9595C76.862 30.9435 76.9349 30.9278 77.0043 30.9107L77.1144 30.8856C77.3217 30.8383 77.5178 30.7935 77.7155 30.7784L78.1958 30.7185C78.6072 30.6672 78.986 30.9609 79.0373 31.375C79.0877 31.7889 78.7938 32.1652 78.3804 32.216L77.8648 32.2799C77.7441 32.2899 77.6007 32.3221 77.4498 32.3569L77.3527 32.3785C77.2838 32.3962 77.1937 32.4157 77.0987 32.4359C76.9629 32.4645 76.8165 32.4947 76.6662 32.5431L76.3539 32.6371C76.1773 32.6894 75.9933 32.7437 75.8046 32.8076L75.357 32.9745C75.3359 32.9826 75.3148 32.9891 75.2932 32.9951C75.1137 33.0716 74.9496 33.1093 74.8003 33.1093" fill="black"/>
<path d="M81.9869 34.4375C81.6876 34.4375 81.3893 34.4215 81.0941 34.3832C80.8728 34.354 80.6755 34.2293 80.5553 34.0412C80.4351 33.8532 80.4044 33.6217 80.4713 33.409C80.6559 32.821 80.8687 32.2401 81.0754 31.6782C81.4577 30.6354 81.8187 29.6502 82.017 28.6166C82.0757 28.3208 82.111 28.0351 82.1221 27.761C81.357 27.9109 80.5946 28.0678 79.8345 28.2303C79.4301 28.3164 79.0262 28.0583 78.9387 27.6504C78.8516 27.243 79.1112 26.8421 79.5191 26.755C80.359 26.5749 81.201 26.4024 82.0446 26.2385L82.6709 26.1147C82.8685 26.0739 83.0732 26.1168 83.2397 26.2294C83.4066 26.342 83.5219 26.5171 83.5586 26.7148C83.609 26.9799 83.6346 27.2469 83.6341 27.4869C83.6416 27.9331 83.5958 28.4155 83.4978 28.9058C83.2775 30.0547 82.8781 31.1446 82.4918 32.1979C82.4038 32.4373 82.3148 32.6803 82.2277 32.9247C82.7176 32.9087 83.2211 32.8472 83.709 32.7773C84.4403 32.6682 85.2456 32.5087 86.2376 32.2759C86.6445 32.1813 87.0489 32.4323 87.1444 32.8377C87.2395 33.2435 86.9879 33.6495 86.5826 33.7451C85.549 33.987 84.7049 34.1546 83.9268 34.2702C83.297 34.3608 82.6407 34.4378 81.9868 34.4378" fill="black"/>
</svg>
